<?xml version="1.0" encoding="UTF-8"?><svg id="Layer_2" xmlns="http://www.w3.org/2000/svg" xmlns:xlink="http://www.w3.org/1999/xlink" viewBox="0 0 175 747"><defs><style>.cls-1{clip-path:url(#clippath);}.cls-2{fill:none;}.cls-2,.cls-3,.cls-4,.cls-5,.cls-6{stroke-width:0px;}.cls-3{fill:#0d542d;}.cls-4{fill:#1b9b48;}.cls-5{fill:#d5522e;}.cls-6{fill:#fff;}</style><clipPath id="clippath"><rect class="cls-2" width="175" height="747"/></clipPath></defs><g id="Layer_1-2"><g class="cls-1"><rect class="cls-3" x="-288.05" y="272.12" width="756.66" height="210.84" transform="translate(-288.43 462.8) rotate(-89.24)"/><path class="cls-4" d="m34.68,442.47c10.27-6.34,13.03-9.64,17.39-13.93,9.53-9.37,24.77-20.09,18.82-35.76-2.34-6.15-12.12-10.34-16.79,3.22-2.49,7.23-2.6,15-3.89,22.48-2.64,15.27-12.34,19.01-20.98,24.13,2.93-6.11,3.49-15.22,3.85-21.59.57-10.09,5.8-20.58,3.24-30.74-4.5-17.86-29.46-6.3-12.98,17.39,3.44,4.95,7.93,11.39,6.81,20.54-1.53,12.51-7.47,24.03-16.57,33.12.93-6.33-.81-7.24,1.57-15.08,3.69-12.17-.19-22.36-4.94-25.87-5.01-3.7-10.64-.66-11.12,5.38-.45,5.75,3.74,12.33,6.89,16.8,2.61,3.71,4.99,6.92,5.64,11.61.95,6.82-1.79,11.85-6.69,14.27-1.88.93-4.65,1.33-6.2,2.81-1.88,1.8,3.42,4.27,13.89-5.11,7-6.27,6.14-9.91,24.09-13.73,13.16-2.8,23.68,6.96,31.76,7.24,12.14.42,13.2-16.13-4.06-16.96-11.91-.57-20.22,4.97-35.32,9.26-.6.17-4.69,1.5-6.48,2.2,3.01-4.54,3.18-6.2,12.07-11.69Zm27.45-41.29c4.65.48,4.05,12.88-9.27,21.57,1.95-5.47,3.42-22.17,9.27-21.57Zm-35-7c4.13-1.72,7.79,6.99,3.79,17.97-6.64-9.09-7.41-16.46-3.79-17.97Zm-21.86,37.5c.61-7.45,10.46-3.9,6.8,13.68-2.81-3.7-7.23-8.48-6.8-13.68Zm61.84,16.85c1.27,1.26,1.04,3.1-.44,4.22-3.86,2.9-13.02-1.03-16.21-3.95,7.98-3.75,14.18-2.73,16.65-.26Z"/><path class="cls-4" d="m189.23,583.41c.63-1.2.59-2.63.44-3.97-.03-.26.25-16.69.25-17.81.01-3.34-.22-5.85,1.77-8.67,5.67-8.02,25.54-10.09,33.25-31.37.79-2.19,3.22-12.65,3.4-13.06,1.08-2.43,2.75-4.66,3.2-7.28-2.74.99-5.47,2.02-8.01,3.46-1.42.8-2.62,1.96-4.05,2.7-8.2,4.22-23.56,12.12-29.95,39.26.91-3.96-.07-9.04-.28-13.05-1.08-20.32-2.53-20.88-.42-24.71,4.88-8.88,15.7-11.86,23.51-26.21.68-1.24,1.04-2.55,1.76-3.79.88-1.52,2.06-2.71,3.01-4.11.9-1.33,1.39-2.97,2.09-4.42-1.9.73-3.89,1.28-5.68,2.22-2.01,1.04-3.95,2.2-5.83,3.46-8.08,5.42-15.63,8.49-20.88,30.88-.92-23.98-9.8-38.13-2.27-47.03,9.57-11.31,22.46-15.78,26.62-29.71,1.25-4.19,1.29-8.71,2.25-12.98.69-3.08,2.94-5.37,2.85-8.73-2.89,2-5.59,4.07-8.33,6.25-1.84,1.47-3.8,2.78-5.85,3.94-8.09,4.54-14.37,12.66-18.11,21.13-3,6.8-3.69,14.33-4.71,21.59-1.79-5.64-3.17-11.39-4.85-17.06-1.11-3.76-3.59-8.47-3.52-12.36.17-8.97,9.58-15.49,12.54-26.77.75-2.85.48-6.33.67-9.28.18-2.83.66-5.75.16-8.55-2.88,3.21-5.75,6.43-8.63,9.64-4.43,4.94-8.87,19.5-6.7,30.1-.83-3.28-2.51-6.65-3.75-9.82-6.88-17.59-8.82-18.29-8.28-23.63,1.35-13.16,13.09-22.5,19.34-33.32,3.14-5.45,2.62-11.62,4.17-17.54,1.13-4.31,3.92-8.95,2.89-13.63-23.67,15.25-33.17,28.61-30,60.48-6.39-11.05-12.53-22.26-19.56-32.95-4.96-7.53,2.28-17.78,3.9-25.51,2.08-9.93-1.74-12.37-1.44-19.18.07-1.67-.53-3.33-.91-4.95.05.22-1.1,1.67-1.25,1.97-1.18,2.28-1.86,5.05-3.04,7.32-6.03,11.53-6.61,17.62-1.05,34.84-2.03-2.66-4.08-5.3-6.15-7.93-11.96-15.11-22.08-24.27-18.58-32.32,1.31-3.02,3.57-5.35,5.32-8.11,4.5-7.1,5.02-17.44,5.59-19.82.42-1.73.69-3.75.62-5.31-1.72,1.42-2.79,3.06-4.09,4.78-.41.54-7.1,6.7-9.12,9.42-6.35,8.56-3.51,15.07-2.28,22.97-1.87-3.27-3.84-6.36-4.89-10.05-7.55-26.49-28.09-35.35-43.21-43.54.17,2.8,1.48,5.4,3.01,7.74,1.53,2.34,3.32,4.53,4.63,7.01,2.67,5.08,3.92,17.71,22.21,30.21,5.03,3.44,10.05,6.89,14.99,10.46-10.52-1.46-20.89-7.57-35.31,2.09-17.1,11.46-2.35.71-18.11,11.51,2.95,1.5,6.41,1.58,9.72,1.45,11.01-.45,8.3.48,13.49.7,5.5.24,10.89-1.48,15.66-4.13,8.12-4.51,8.82-8.34,15.68-7.79,3.96.32,7.73,3.79,22.53,22.71-10.15-6.37-19.06-10.29-32.73-6.08-3.6,1.11-6.45.71-13.88,4.25,4.01,2.16,16.99,4.65,19.26,4.96,16.76,2.27,22.69-8.53,33.8,5,1.47,1.79,9.61,14.4,15.13,24.07-9.47-9.18-23.99-17.2-38.74-16.47-2.5.12-16.07,2.53-26.08,5.48,12.81,6.45,26.31,13.07,40.65,12.64,9.83-.29,19.91-3.95,27.27,5.02,1.96,2.39,6.23,11.17,7.81,14.32,1.44,2.88,4.4,10.32,5.75,11.65-2.58-2.52-5.34-4.86-8.25-6.99-5.08-3.72-7.15-6.43-19.44-7.09-3.64-.2-7.23-.36-10.88-.31,1.45,1.74,3.23,3.21,5.21,4.31,3.26,1.83,6.22,4.02,9.07,6.43,7.45,6.31,24.35,2.38,27.03,10.99,2.2,7.04,4.53,10.29,10.25,29.77.21.72,3.78,13.97,4.16,14.6-5.19-8.91-10.76-24.19-33.02-33.39-5.01-2.07-10.21-4.07-15.39-5.61,1.04,4.25,5.17,6.93,7.52,10.62,1.32,2.09,2.17,4.47,3.4,6.61,2.68,4.68,3.79,7.81,14.54,15.54,7.61,5.47,15.5,4.31,22.84,12.27,2.78,3.02,2.88,6.92,3.66,10.86,2.38,12.11,4.35,25.31,5.7,39.64,1.92,20.34,1.74,36.01,1.74,36.01-4.59-8.79-13.32-17.31-23.12-18.58-2.02-.26-4.19.05-6.25-.04-1.68-.07-3.36-.23-5.02-.47-1.49-.21-3.05-.15-4.41-.09,2.66,2.52,5.33,5.05,7.99,7.57,9.21,8.73,11.96,6.37,23.89,9.84,8.84,2.57,7.33,12.3,7.16,19.65-.11,4.97-.91,9.93-2.38,14.68,1.24.54,2.75-.3,3.37-1.5Z"/><path class="cls-4" d="m187.8,509.4l-.07-1.74c-4.32.5-6.65-2.76-7.31-5.45-2.69-11.02-2.97-12.75-11.39-21.75-.17,1.81-.11,3.83-.55,5.59-1.02,4.16,0,9.38,2.33,12.94,3.76,5.72,8.28,7.13,11.36,8.83,0,0-9.01-.75-18.4-3.78-4.47-1.44-8.21-3.79-10.64-7.96-4.81-8.28,1.16-6.75,3.09-7.58,3.09-1.33,5.32-4.52,5.42-7.88.19-6.84-8.5-11.92-14.42-8.55-5.42,3.08-5.99,11.1-.56,15.21,3.74,2.84.95,3.36,4.56,9.27.91,1.49,2.05,2.82,3.34,3.99-15.05-6.59-20.54-9.98-19.92-23.29.2-4.39,1.11-9.03.48-13.38-2.4-13.51-5.27-11.77-7.85-17.81-1.24-2.92-2.33-5.63-4.36-8.16.03.03-.8,2.05-.85,2.3-.19.89-.15,1.73-.14,2.62.06,6.44-6.35,21.62,9.94,43.32.25.33,2.68,3.49,2.88,3.41-.53.21-2.71-1.75-3.15-2.09-12.49-9.78-13.46-10.95-18.24-19.97-2.53-4.76-4.82-9.84-8.08-14.18-2.68-3.76-6.61-6.24-10.64-8.34-4.15-2.16-8.14-4.59-12.42-6.38,1.12,3.05,3.09,5.61,4.32,8.56,2.07,4.97,2.92,17.54,18.58,24.1,4.12,1.73,7.75,4.29,11.73,6.26,3.85,1.91,6.49,5.52,10.02,7.87-1.76-.65-3.59-1.1-5.45-1.32-1.4-.17-2.55.21-3.92-.25-3.32-1.12-3.85-3.5-7.54-4.27-3.3-.69-6.92.98-8.63,3.88-3.67,6.23,1.78,14.34,9.48,13.06,10.81-1.8,3.64-11.13,9.6-11.07,8.05.07,14.37,8.13,32.4,16.19-30.75-8.64-33.01-4.43-53.79,8.08,1.88.99,3.97,1.57,6.09,1.7,17.19,1.02,17.79,2.5,34.02-3.57,11.45-4.28,11.64-6.09,24.97-1.9,3.62,1.14,7.86,2.66,11.69,2.79-8.17-.27-11.77-.03-18.08,4.61-1.37,1.01-2.32,2.26-3.61,3.35-2.75,2.33-5.46,4.92-6.92,8.29,1.17-.16,2.45-.38,2.78-.43,1.07-.19,2.13-.4,3.18-.64,24.39-5.47,12.7-13.63,34.65-14.45Zm-38.17-33.84c1.03-3.39,7.97-1.89,6.97,1.74-1.05,3.83-7.93,1.43-6.97-1.74Zm-44.78,16.92c-1.86-1.69-2.56-5.2.86-5.7,1.57-.23,3.1.91,3.69,2.33,1.16,2.8-1.84,5.82-4.55,3.36Z"/><path class="cls-4" d="m5.11,502.88c4.82,6.48,10.66,12.02,17.96,15.55,11.51,5.57,17.68.36,24.13,4.57,3.17,2.07,6.11,5.82,12.14,4.64,8.74-1.7,7.52-10.13,11.88-12.31,3.96-1.98,4.92,4.79,12.27,2.59-1.64-1.51-2.19-2.62-4.77-3.66-2.09-.84-4.55-.59-6.79-1.79,2.32-1.73,4.61-1.04,7.27-1.25,2.89-.22,6.14-2.13,7.77-4.17-9.39-1.96-9.51,2.96-15.87,2.63,1.43-4.05,6.78-3.7,7.43-11.8-6.58,3.92-5.69,5.45-7.54,8.49-3.2,5.26-10.97-3.14-19.38.14-3.25,1.27-5.45,4.83-6.81,7.85-3.55,7.86-25.07,8.45-41.98-17.83,3.28,2.36,6.32,4.92,10.02,6.55,16.3,7.17,24.87-3.03,32.39-5.42-7.27-1.45-13.24-3.64-19.77-3.56-4.87.06-8.48,1.62-12.72,2.42-4.28.8-9.78-.36-12.08-4.4-1.74-3.07-3.3-12.35-9.33-11.62.94,9.95,17.19,13.3,11.31,50.58-2.84,17.99,3.38,20.72,7.69,34.95,1.86,6.15,3.6,11.45,6.99,15.94,1.81-7.69-.19-9.34.56-16.25.62-5.74,2.14-11.42,1.77-17.23-1.23-19.11-8.61-24.64-11.98-36.25,5.26,8.29,12.17,19.45,25.16,29.74,2.45,1.95,5.87,3.83,7.68,6.44,1.55,2.24,1.83,4.95,2.86,7.42,3.5,8.43,13.62,10.52,20.29,5.54,1.53-1.14,2.92-2.65,4.86-2.49,2.36.2,2.48,2.96,2.65,4.78.25,2.69,1.75,5.3,3.48,7.14.49-1.93.93-4.89.08-6.86-.93-2.15-3.4-3.89-3.51-7.07,2.61,1.49,3.91,4.9,5.8,7.09,3.24,3.76,7.04,5.25,7.04,5.25-2.17-7.13-5.37-9.16-7.36-10.62-1.33-1.04-3.46-2.29-4.15-3.85,3.46-.11,6.11,4.35,11.26,5.08,2.14.3,4.24-.33,4.24-.33-2.27-2.58-3.69-4.72-8.95-5.53-1.57-.24-4.88-1-5.83-1.55,5.22-2.36,10.39,1.45,16.75-6.83-4.87,0-7.82-.67-13.01,2.9-8.88,6.1-5.96-5.28-17.42-9.03-4.9-1.6-9.3-.33-13.47,2.38-9.94,6.44-31.54-18.52-40.99-39Z"/><path class="cls-6" d="m139.17,211.07c6.01-5.42,5.34-5.22,11.42-16.95-7.83,6.01-10.36,9.91-12.79,15.74.75-4.93,2.07-11.41-3.62-19.06,0,0-.98,6.06.28,11.94.09.43.58,4.26,1.7,7.5-2.61-1.25-4.34-2.07-6.91-2.16-5.42-.19-11.89,1.41-11.89,1.41,4.51,1.68,9.45,2.54,14.51,2.41,1.57-.04,2.85-.36,4.42-.13-5.62,5.08-9.19,12.38-9.75,19.94,4.52-5.81,9.16-11.86,10.9-19.01.36,1.19.72,2.39,1.29,3.49,4.43,8.5,7.19,10,8.95,11.62.63.58,1.81,2.21,3.42,3.43-.06-6.18-7.71-14.66-12.4-19.02,7.32.26,10.54,2.7,16.4,2.34,1.56-.1,2.97-.68,4.45-1.17-2.35-.68-4.82-1.23-7.06-2.16-5.17-2.16-6.61-1.18-13.32-.15Zm-7.38,363.51c3.44-.45,7.4-2.16,10.38-5.42.2.89.63,2.24.74,2.53.78,2.18,1.88,4.38,3.32,6.26,1.86,2.43,4.06,4.6,6.54,6.39.26-1.31.05-2.72-.36-4.03-1.04-3.29-1.81-6.24-5.4-9.8-.48-.48-1.97-1.58-3-2.13,2.41-.02,5.47-.3,7.74-1.19,2.31-.91,4.55-2.41,6.75-3.58,1.66-.89,3.37-1.8,4.63-3.2-.11-.02-.22-.03-.33-.05-7.55-1.07-11.02-.8-16,3.11-1.24.98-2.64,1.95-3.76,3.07-.03-2.3-.4-5.99-2.01-8.26-.8-1.13-1.73-2.24-2.41-3.43-.61-1.06-1.46-1.82-2.33-2.69-.67,7.42,2.37,12.81,4.88,15.19-6.35.46-6.78,1.59-8.77,2.97-.88.61-1.96,1.08-2.71,1.86-.72.74-1.21,1.47-1.73,2.36,1.32.18,2.53.22,3.85.05Z"/><path class="cls-4" d="m33.47,320.92c2.58,1.81,6.5,1.81,9.25.02,1.62-1.06,2.82-2.68,3.28-4.44.98-3.7-1.67-7.76-5.62-8.6-8.07-1.71-13.41,8.48-6.92,13.02Zm5.98-5.03c1.61-.1,3.95.66,3.3,2.72-.36,1.15-2.14,2.16-3.24,2.4-1.49.32-2.86-.24-3.45-1.17-1.23-1.94,1.82-3.85,3.39-3.94ZM-.91,284.99c-.54,3.72,1.97,7.66,5.58,8.72,3.61,1.07,7.86-.87,9.43-4.29.69-1.51.89-3.25.5-4.87-2.08-8.6-14.21-8.5-15.51.43Zm4.01,2.74c.64-1.03,1.81-1.37,2.96-1.33,1.57.06,5.09,1.48,3.98,3.63-.72,1.39-3.14,1.63-4.48,1.29-1.56-.4-3.48-1.96-2.46-3.6Zm-20.71,1.39c.52,1.75,1.47,3.65,3.24,4.1,2.19.55,4.15-1.42,5.42-3.29,5.98-8.8,5.79-26.35,3.61-34.76,7.32,5.58,12.89,10.64,18.03,17.02,2.15,2.67,4.17,5.44,6.09,8.27,2.08,3.09,2.71,6.58.99,9.88-1.27,2.43-2.34,4.97-3.2,7.58-1.68,5.14-2.53,10.55-2.45,15.96.03,1.84.18,3.75,1.08,5.36.9,1.61,2.74,2.82,4.54,2.46,2.17-.44,3.32-2.78,4.03-4.88,2.66-7.87,3.38-18.61,2.08-26.37,4.65,5.16,12.42,10.62,17.97,12.92,1.84.76,3.77,1.43,5.76,1.42,1.99-.01,4.07-.82,5.17-2.48,1.35-2.03.91-4.85-.46-6.86-1.38-2.01-3.52-3.35-5.66-4.5-3.9-2.09-7.51-3.19-11.84-4.11-2.88-.61-6.46-.84-9.3-1.68-3.56-1.06-5.98-4.07-7.92-6.99-4.37-6.58-9.58-12.6-15.35-17.98,5.71,3.31,13.27,7.25,18.9,8.8,4.47,1.24,18.92,6.26,21.06-.57.65-2.07-.66-4.22-2.11-5.83-5.54-6.2-13.79-9.45-22.03-10.53-4.4-.58-8.83-.91-13.27-1.06-2.31-.08-4.62-.1-6.94-.06-1.65.03-3.84.54-5.43.06-3.2-.97-6.09-2.7-8.98-4.27-4.28-2.33-9.52-5.13-13.58-5.64-.54,1.22.1,2.27,1.03,3.23.93.96,2.19,1.51,3.41,2.04,4.06,1.75,8.7,2.81,12.42,5.2,3.17,2.04.34,5.91-.91,8.25-1.69,3.18-3.23,6.46-4.38,9.88-2.11,6.25-2.91,13.12-1.04,19.44Z"/><path class="cls-4" d="m26.34,176.75c12.59,3.76,24.31,10.18,33.77,19.42,3.35,3.27,8.29,8.82,5.91,13.92-2.1,4.51-2.76,9.04-.49,13.67,5.3,10.83,16.16,6.37,11.35,16-2.82,5.64-1.74,8.47-1.07,13.29,7.32-7.45,2.83-12.04,4.45-17.54.67.87,1.88,4.04,2.34,5.56,1.53,5.1,3.85,6.2,6.72,8.1,0,0,.34-2.17-.26-4.24-1.44-5-6.22-7.01-6.59-10.45,1.64.47,3.17,2.41,4.39,3.58,1.73,1.76,4.18,4.65,11.54,5.82,0,0-2.01-3.56-6.18-6.25-2.43-1.57-5.99-2.39-7.83-4.76,3.16-.34,5.23,1.87,7.49,2.49,2.07.57,4.94-.27,6.78-1.02-2.05-1.46-4.85-2.58-7.55-2.45-1.83.09-4.58.35-5.1-1.96-.43-1.9.87-3.49,1.79-5.16,4.01-7.3.54-17.03-8.29-19.33-2.59-.68-5.32-.58-7.75-1.8-4.35-2.2-7.14-6.96-10.78-10.07-4.41-3.76-8.84-7.56-13.82-10.55-5.43-3.26-11.08-5.29-17.78-7.81,7.87-.12,15.63,2.4,23.44,3.11,5.91.55,12.09-1.11,17.43-3.73,7.7-3.76,15.06-8.24,23.01-11.28-3.66-.47-7.18-1.01-10.83-.81-4.05.22-8.37-.34-12.36-.97-5.24-.83-10.89-.7-15.97,1.01-5.9,1.98-11.68,4.21-17.54,6.32-3.28,1.18-6.59,2.14-10.01,2.84-3.33.68-6.87.21-10.25-.27-13.95-1.94-28.08-2.63-42.16-2.06,0,2.13,1.93,3.86,4,4.4,2.06.54,4.24.18,6.35-.11,13.79-1.93,28.32-.97,41.86,3.08Z"/><path class="cls-4" d="m19.71,200.1c-1.16-2.85-2.04-5.81-2.63-8.82-.84-4.32-.76-9.24-2.79-13.32-2.34-4.7-9.42-7.29-14.44-6.49,9.42-1.5,15.33,1.42,21.88,7.94,3.11,3.09,7.07,7.2,8.73,11.26,2.16,5.31,1.8,10.56,2.46,16.09.3,2.51.2,4.97-.09,7.51-.16,1.37-.89,5.85-1.78,8.85-3.56-4.98-4.5-10.8-7.72-15.93-1.41-2.25-2.62-4.62-3.62-7.08Z"/><path class="cls-4" d="m27.19,157.71c2.94-3.25,5.16-7.64,7.78-11.06,1.47-1.91,3.06-3.78,4.42-5.77.62-.91,1.93-4.63,2.8-4.94-3.47,1.21-7.29,2.46-10.3,4.5-3.12,2.12-6.56,3.15-9.83,4.99-3.69,2.08-7.23,4.59-9.64,8.13-2.12,3.11-3.68,6.61-6.08,9.52-3.8,4.61-9.92,5.46-15.48,6.56,1.6-.32,3.96.41,5.65.39,2.18-.01,4.36-.22,6.51-.61,4.05-.74,7.91-2.28,11.7-3.8,3.95-1.58,8.08-3.76,11.23-6.66.43-.4.85-.82,1.25-1.27Z"/><path class="cls-5" d="m83.61,195.64c1.34,2.02,4.21,2.83,6.42,1.86,2.22-.98,3.56-3.6,3.1-5.97-1.36-7.06-13.43-1.8-9.52,4.12Zm-66.5,15.43c-5.14.86-4.5,8.31-.66,10.45,1.93,1.08,4.61.78,6.09-.86,3.33-3.69-.66-10.39-5.44-9.59Zm127,56.88c-2.43-.16-4.74,2.45-4.81,4.72-.07,2.35,1.96,4.6,4.31,4.67,5.61.17,5.23-9.08.5-9.39Zm-62.85,84.08c-1.04-3.07-4.6-5.69-7.64-2.41-1.5,1.62-1.49,4.38-.06,6.07,1.43,1.69,4.05,2.18,6.05,1.23,1.98-.94,2.3-3,1.65-4.89Zm51.16,171.73c4.04,4.88,10.95-.27,6.64-5.49-4.3-5.2-10.69.59-6.64,5.49Zm-71.01-35.45c-1.92-2.12-6.3-1.64-7.35,1.18-.69,1.85.3,4.12,2.07,4.99,1.77.87,4.08.33,5.38-1.16,1.26-1.45,1.23-3.49-.04-4.94-.02-.02-.04-.05-.06-.07Z"/></g></g></svg>