<?xml version="1.0" encoding="UTF-8"?><svg id="Layer_2" xmlns="http://www.w3.org/2000/svg" xmlns:xlink="http://www.w3.org/1999/xlink" viewBox="0 0 175 747"><defs><style>.cls-1{clip-path:url(#clippath);}.cls-2{fill:none;}.cls-2,.cls-3,.cls-4,.cls-5{stroke-width:0px;}.cls-3{fill:#cd3941;}.cls-4{fill:#fff;}.cls-5{fill:#0050a4;}</style><clipPath id="clippath"><rect class="cls-2" width="175" height="747"/></clipPath></defs><g id="Layer_1-2"><g class="cls-1"><rect class="cls-4" x="-300.66" y="274.46" width="776.41" height="200.52" transform="translate(-288.03 458.54) rotate(-89.43)"/><path class="cls-5" d="m37.33,439.86c10.24-6.38,12.99-9.69,17.34-13.99,9.5-9.4,24.7-20.17,18.7-35.82-2.36-6.15-12.15-10.3-16.78,3.28-2.47,7.24-2.55,15.01-3.82,22.49-2.59,15.28-12.28,19.05-20.9,24.2,2.91-6.12,3.44-15.23,3.77-21.6.54-10.09,5.73-20.6,3.14-30.75-4.56-17.85-29.48-6.21-12.92,17.44,3.46,4.94,7.97,11.36,6.88,20.52-1.49,12.51-7.39,24.05-16.46,33.17.91-6.33-.83-7.24,1.52-15.08,3.65-12.18-.27-22.36-5.03-25.85-5.03-3.69-10.64-.62-11.1,5.41-.43,5.75,3.78,12.32,6.94,16.77,2.63,3.7,5.01,6.9,5.68,11.59.97,6.82-1.75,11.85-6.64,14.29-1.88.94-4.65,1.35-6.19,2.83-1.87,1.8,3.44,4.26,13.88-5.15,6.98-6.29,6.11-9.93,24.04-13.81,13.15-2.85,23.71,6.88,31.78,7.13,12.14.38,13.15-16.17-4.12-16.94-11.91-.53-20.2,5.04-35.29,9.37-.6.17-4.69,1.52-6.47,2.23,2.99-4.55,3.16-6.21,12.03-11.73Zm27.32-41.38c4.65.46,4.09,12.87-9.2,21.6,1.94-5.48,3.35-22.18,9.2-21.6Zm-35.02-6.88c4.13-1.73,7.81,6.96,3.85,17.95-6.67-9.07-7.46-16.44-3.85-17.95Zm-21.74,37.57c.58-7.46,10.44-3.94,6.85,13.65-2.82-3.69-7.26-8.46-6.85-13.65Zm61.9,16.65c1.27,1.26,1.05,3.1-.43,4.22-3.85,2.92-13.03-.99-16.22-3.9,7.97-3.77,14.17-2.78,16.65-.32Z"/><path class="cls-5" d="m192.35,580.29c.62-1.2.58-2.63.42-3.98-.03-.26.19-16.69.19-17.81,0-3.34-.24-5.85,1.74-8.67,5.64-8.04,25.51-10.17,33.15-31.48.79-2.19,3.18-12.66,3.36-13.07,1.07-2.44,2.74-4.67,3.18-7.29-2.74,1-5.46,2.04-8,3.48-1.42.81-2.61,1.97-4.04,2.71-8.19,4.25-23.51,12.2-29.82,39.36.89-3.96-.1-9.04-.33-13.04-1.15-20.31-2.6-20.87-.5-24.71,4.85-8.9,15.66-11.91,23.42-26.29.67-1.24,1.03-2.55,1.75-3.8.87-1.52,2.05-2.71,3-4.12.9-1.33,1.38-2.98,2.08-4.43-1.9.73-3.88,1.3-5.67,2.23-2,1.05-3.95,2.22-5.82,3.48-8.06,5.45-15.6,8.54-20.78,30.95-1-23.97-9.93-38.09-2.43-47.02,9.53-11.34,22.41-15.85,26.52-29.8,1.23-4.19,1.26-8.71,2.21-12.99.68-3.08,2.92-5.38,2.82-8.74-2.88,2.01-5.58,4.09-8.31,6.28-1.84,1.47-3.79,2.8-5.84,3.96-8.07,4.57-14.33,12.71-18.04,21.19-2.98,6.81-3.64,14.34-4.63,21.61-1.81-5.63-3.21-11.38-4.9-17.04-1.12-3.76-3.62-8.45-3.56-12.35.14-8.98,9.53-15.52,12.45-26.81.74-2.85.46-6.33.64-9.28.17-2.83.64-5.76.13-8.55-2.87,3.22-5.73,6.44-8.6,9.67-4.41,4.95-8.8,19.53-6.6,30.12-.84-3.28-2.54-6.65-3.78-9.8-6.94-17.57-8.89-18.26-8.36-23.6,1.31-13.16,13.01-22.54,19.23-33.38,3.13-5.46,2.59-11.63,4.11-17.55,1.11-4.32,3.89-8.96,2.84-13.64-23.62,15.33-33.07,28.72-29.8,60.58-6.42-11.03-12.6-22.22-19.67-32.88-4.98-7.51,2.22-17.79,3.82-25.52,2.05-9.93-1.78-12.36-1.51-19.17.07-1.67-.54-3.33-.93-4.95.05.22-1.09,1.68-1.24,1.98-1.17,2.28-1.84,5.06-3.02,7.33-5.99,11.55-6.56,17.64-.93,34.85-2.03-2.66-4.09-5.29-6.18-7.91-12.01-15.07-22.16-24.19-18.69-32.26,1.3-3.03,3.56-5.36,5.3-8.13,4.48-7.12,4.96-17.46,5.52-19.84.41-1.74.67-3.75.6-5.31-1.71,1.42-2.78,3.07-4.08,4.79-.41.54-7.08,6.72-9.09,9.45-6.32,8.58-3.46,15.08-2.2,22.97-1.88-3.27-3.86-6.35-4.93-10.04-7.63-26.47-28.21-35.25-43.36-43.4.18,2.8,1.5,5.39,3.04,7.73,1.54,2.34,3.34,4.52,4.65,7,2.69,5.08,3.98,17.69,22.31,30.13,5.04,3.42,10.07,6.86,15.03,10.41-10.53-1.42-20.92-7.5-35.31,2.21-17.06,11.51-2.35.72-18.07,11.57,2.96,1.49,6.41,1.56,9.72,1.42,11.01-.48,8.3.45,13.49.66,5.5.22,10.88-1.52,15.64-4.18,8.11-4.54,8.79-8.37,15.65-7.84,3.96.31,7.75,3.76,22.6,22.64-10.17-6.33-19.09-10.22-32.75-5.98-3.59,1.12-6.45.73-13.87,4.3,4.02,2.15,17,4.59,19.28,4.89,16.77,2.21,22.66-8.61,33.81,4.89,1.48,1.79,9.65,14.36,15.21,24.02-9.5-9.14-24.05-17.12-38.79-16.34-2.5.13-16.06,2.59-26.06,5.57,12.83,6.41,26.35,12.98,40.69,12.51,9.83-.32,19.9-4.02,27.29,4.93,1.97,2.38,6.27,11.14,7.85,14.29,1.45,2.88,4.43,10.3,5.79,11.63-2.59-2.51-5.36-4.84-8.27-6.97-5.09-3.7-7.17-6.4-19.46-7.03-3.64-.19-7.23-.34-10.88-.28,1.46,1.73,3.24,3.2,5.22,4.3,3.26,1.81,6.24,4,9.09,6.4,7.47,6.29,24.35,2.3,27.07,10.9,2.22,7.03,4.57,10.28,10.35,29.73.21.72,3.83,13.95,4.21,14.59-5.22-8.89-10.85-24.16-33.13-33.28-5.02-2.06-10.23-4.04-15.4-5.56,1.05,4.25,5.19,6.91,7.55,10.6,1.33,2.08,2.18,4.46,3.42,6.6,2.7,4.67,3.81,7.8,14.6,15.49,7.63,5.44,15.51,4.26,22.88,12.19,2.79,3.01,2.91,6.91,3.7,10.85,2.42,12.1,4.43,25.29,5.83,39.62,1.99,20.34,1.86,36.01,1.86,36.01-4.62-8.77-13.38-17.27-23.18-18.5-2.02-.25-4.19.07-6.25-.02-1.68-.07-3.36-.22-5.02-.45-1.49-.21-3.05-.14-4.41-.08,2.67,2.52,5.34,5.03,8.02,7.55,9.24,8.7,11.98,6.33,23.92,9.76,8.85,2.54,7.37,12.27,7.23,19.62-.1,4.97-.88,9.93-2.33,14.69,1.25.53,2.74-.31,3.37-1.51Z"/><path class="cls-5" d="m190.67,506.29l-.07-1.74c-4.32.52-6.66-2.74-7.33-5.43-2.72-11.01-3.02-12.74-11.46-21.72-.16,1.81-.1,3.83-.53,5.59-1.01,4.16.03,9.38,2.38,12.93,3.78,5.71,8.3,7.1,11.39,8.79,0,0-9.01-.72-18.41-3.72-4.48-1.43-8.22-3.76-10.66-7.92-4.84-8.26,1.13-6.75,3.06-7.59,3.09-1.34,5.31-4.53,5.39-7.9.17-6.85-8.54-11.89-14.45-8.5-5.41,3.1-5.95,11.12-.51,15.21,3.75,2.82.96,3.35,4.59,9.25.91,1.48,2.06,2.82,3.35,3.97-15.07-6.54-20.58-9.91-20-23.22.19-4.39,1.08-9.03.43-13.38-2.44-13.51-5.31-11.75-7.91-17.79-1.25-2.91-2.35-5.62-4.39-8.14.03.03-.79,2.05-.85,2.3-.19.89-.15,1.73-.13,2.62.08,6.44-6.28,21.64,10.09,43.29.25.33,2.69,3.49,2.89,3.4-.53.21-2.72-1.74-3.15-2.08-12.52-9.73-13.49-10.9-18.31-19.91-2.54-4.75-4.86-9.82-8.13-14.16-2.69-3.76-6.63-6.22-10.67-8.31-4.16-2.15-8.15-4.56-12.44-6.34,1.13,3.05,3.1,5.6,4.34,8.54,2.09,4.96,2.98,17.53,18.66,24.04,4.12,1.71,7.76,4.26,11.75,6.22,3.86,1.9,6.51,5.5,10.04,7.83-1.76-.65-3.59-1.08-5.46-1.3-1.4-.16-2.55.22-3.92-.24-3.33-1.11-3.86-3.49-7.56-4.25-3.3-.68-6.92,1-8.62,3.91-3.65,6.24,1.82,14.34,9.53,13.03,10.81-1.84,3.6-11.14,9.57-11.11,8.05.05,14.4,8.08,32.45,16.08-30.78-8.53-33.03-4.32-53.76,8.26,1.88.98,3.98,1.56,6.1,1.67,17.19.97,17.79,2.44,34.01-3.68,11.43-4.32,11.62-6.13,24.97-1.98,3.63,1.13,7.87,2.64,11.7,2.75-8.17-.24-11.77.01-18.06,4.67-1.37,1.01-2.31,2.27-3.6,3.36-2.75,2.33-5.45,4.94-6.89,8.31,1.17-.17,2.45-.38,2.78-.44,1.07-.19,2.13-.41,3.18-.65,24.37-5.55,12.65-13.68,34.6-14.56Zm-38.29-33.71c1.02-3.39,7.96-1.92,6.98,1.72-1.04,3.83-7.93,1.45-6.98-1.72Zm-44.72,17.07c-1.87-1.69-2.57-5.19.84-5.7,1.57-.23,3.1.9,3.7,2.32,1.17,2.8-1.82,5.83-4.53,3.38Z"/><path class="cls-5" d="m7.97,500.37c4.85,6.46,10.7,11.99,18.01,15.49,11.53,5.53,17.69.3,24.14,4.49,3.18,2.06,6.13,5.79,12.15,4.6,8.73-1.73,7.49-10.15,11.84-12.35,3.95-1.99,4.94,4.77,12.28,2.55-1.64-1.5-2.2-2.62-4.78-3.64-2.1-.84-4.55-.58-6.8-1.76,2.32-1.73,4.61-1.05,7.27-1.27,2.89-.23,6.14-2.15,7.75-4.2-9.39-1.93-9.5,2.99-15.86,2.68,1.41-4.05,6.77-3.73,7.39-11.82-6.56,3.94-5.67,5.46-7.51,8.52-3.18,5.27-10.98-3.1-19.38.21-3.25,1.28-5.43,4.85-6.79,7.88-3.52,7.87-25.04,8.53-42.03-17.69,3.28,2.35,6.33,4.9,10.04,6.52,16.33,7.12,24.86-3.11,32.37-5.52-7.28-1.42-13.25-3.6-19.78-3.5-4.87.07-8.47,1.65-12.71,2.46-4.28.82-9.78-.32-12.09-4.36-1.75-3.06-3.34-12.34-9.37-11.58.97,9.94,17.24,13.25,11.48,50.54-2.78,18,3.45,20.71,7.8,34.93,1.88,6.15,3.64,11.44,7.05,15.91,1.79-7.7-.22-9.34.51-16.26.6-5.74,2.11-11.43,1.71-17.24-1.29-19.1-8.69-24.62-12.1-36.21,5.29,8.28,12.23,19.41,25.26,29.66,2.46,1.94,5.88,3.81,7.7,6.42,1.56,2.23,1.85,4.95,2.88,7.41,3.53,8.42,13.65,10.47,20.31,5.47,1.52-1.14,2.91-2.66,4.85-2.5,2.36.19,2.49,2.95,2.66,4.77.26,2.69,1.76,5.3,3.5,7.12.48-1.93.91-4.89.05-6.86-.94-2.15-3.42-3.88-3.53-7.06,2.61,1.48,3.92,4.89,5.82,7.07,3.25,3.75,7.06,5.23,7.06,5.23-2.2-7.12-5.4-9.14-7.39-10.6-1.33-1.04-3.47-2.28-4.16-3.84,3.46-.12,6.13,4.33,11.27,5.04,2.14.3,4.24-.34,4.24-.34-2.28-2.57-3.7-4.71-8.97-5.5-1.58-.24-4.88-.99-5.84-1.53,5.22-2.38,10.39,1.42,16.73-6.89-4.87.02-7.82-.64-13.01,2.94-8.86,6.13-5.98-5.26-17.45-8.97-4.91-1.59-9.3-.29-13.47,2.43-9.92,6.48-31.6-18.41-41.12-38.86Z"/><path class="cls-3" d="m141.05,208.12c5.99-5.44,5.32-5.24,11.36-16.99-7.81,6.04-10.33,9.95-12.73,15.78.74-4.93,2.03-11.42-3.68-19.05,0,0-.96,6.06.32,11.94.1.43.6,4.26,1.73,7.5-2.62-1.24-4.35-2.06-6.92-2.14-5.42-.17-11.89,1.45-11.89,1.45,4.51,1.66,9.46,2.51,14.52,2.36,1.57-.05,2.85-.37,4.42-.14-5.61,5.1-9.15,12.41-9.68,19.97,4.5-5.83,9.12-11.89,10.84-19.04.36,1.19.72,2.38,1.3,3.48,4.46,8.49,7.22,9.98,8.99,11.59.63.58,1.81,2.2,3.43,3.42-.08-6.18-7.76-14.63-12.46-18.97,7.32.24,10.55,2.67,16.4,2.29,1.56-.1,2.97-.69,4.45-1.19-2.35-.67-4.82-1.21-7.07-2.14-5.18-2.14-6.61-1.16-13.32-.11Zm-6.17,363.54c3.44-.46,7.4-2.18,10.37-5.45.2.89.64,2.23.75,2.53.79,2.17,1.9,4.38,3.34,6.24,1.87,2.43,4.08,4.58,6.57,6.37.26-1.31.04-2.72-.38-4.03-1.05-3.28-1.84-6.23-5.43-9.78-.49-.48-1.97-1.58-3.01-2.12,2.41-.03,5.47-.32,7.74-1.22,2.31-.92,4.54-2.42,6.74-3.6,1.66-.89,3.36-1.81,4.62-3.22-.11-.02-.22-.03-.33-.05-7.55-1.05-11.03-.76-15.99,3.16-1.24.98-2.63,1.96-3.75,3.08-.03-2.3-.42-5.98-2.04-8.26-.8-1.13-1.73-2.23-2.43-3.43-.61-1.06-1.46-1.82-2.34-2.68-.65,7.42,2.41,12.8,4.93,15.17-6.35.49-6.78,1.62-8.76,3-.88.61-1.95,1.09-2.7,1.87-.71.74-1.2,1.47-1.73,2.36,1.32.17,2.53.22,3.85.04Z"/><path class="cls-5" d="m35.72,318.32c2.59,1.8,6.51,1.79,9.25-.01,1.62-1.06,2.81-2.69,3.27-4.45.97-3.7-1.7-7.76-5.64-8.58-8.08-1.69-13.38,8.53-6.88,13.04Zm5.96-5.05c1.61-.1,3.95.65,3.3,2.71-.36,1.15-2.13,2.17-3.23,2.41-1.49.33-2.86-.23-3.46-1.16-1.24-1.93,1.81-3.85,3.38-3.95ZM1.22,282.5c-.53,3.73,2,7.65,5.61,8.7,3.61,1.05,7.86-.89,9.41-4.32.69-1.51.88-3.26.48-4.87-2.11-8.6-14.24-8.46-15.51.48Zm4.02,2.73c.63-1.03,1.81-1.38,2.96-1.34,1.57.05,5.09,1.46,3.99,3.62-.71,1.4-3.13,1.64-4.47,1.31-1.56-.39-3.48-1.95-2.48-3.59Zm-20.7,1.46c.52,1.75,1.48,3.65,3.25,4.08,2.19.54,4.14-1.44,5.41-3.31,5.95-8.82,5.71-26.37,3.49-34.77,7.34,5.56,12.93,10.59,18.09,16.96,2.16,2.66,4.19,5.42,6.12,8.25,2.09,3.08,2.74,6.57,1.02,9.88-1.26,2.44-2.32,4.98-3.17,7.59-1.67,5.14-2.5,10.56-2.4,15.97.03,1.84.19,3.75,1.1,5.35.9,1.6,2.75,2.81,4.55,2.44,2.17-.45,3.31-2.79,4.01-4.89,2.63-7.88,3.32-18.62,1.99-26.38,4.67,5.15,12.46,10.58,18.01,12.86,1.84.76,3.77,1.42,5.76,1.4,1.99-.02,4.07-.83,5.17-2.49,1.34-2.03.9-4.86-.49-6.86-1.38-2-3.53-3.33-5.68-4.48-3.91-2.08-7.52-3.17-11.85-4.07-2.88-.6-6.46-.81-9.3-1.65-3.56-1.05-5.99-4.05-7.94-6.96-4.39-6.57-9.62-12.57-15.41-17.93,5.72,3.29,13.29,7.2,18.93,8.74,4.47,1.22,18.94,6.19,21.06-.64.64-2.07-.68-4.21-2.13-5.82-5.56-6.18-13.82-9.4-22.06-10.46-4.4-.56-8.84-.88-13.27-1.02-2.31-.07-4.63-.09-6.94-.04-1.65.04-3.84.55-5.43.08-3.2-.95-6.1-2.68-8.99-4.24-4.29-2.32-9.54-5.09-13.6-5.59-.53,1.22.11,2.27,1.04,3.23.93.95,2.19,1.5,3.42,2.02,4.06,1.73,8.71,2.78,12.44,5.16,3.17,2.03.36,5.91-.88,8.26-1.68,3.19-3.21,6.47-4.35,9.89-2.09,6.25-2.87,13.13-.97,19.44Z"/><path class="cls-5" d="m28.11,174.18c12.6,3.72,24.34,10.1,33.83,19.31,3.36,3.26,8.31,8.8,5.95,13.9-2.09,4.52-2.73,9.05-.45,13.68,5.33,10.81,16.18,6.31,11.4,15.96-2.8,5.65-1.71,8.47-1.03,13.29,7.3-7.48,2.79-12.05,4.39-17.55.68.87,1.9,4.03,2.36,5.56,1.54,5.09,3.87,6.19,6.74,8.07,0,0,.33-2.17-.27-4.24-1.45-4.99-6.24-6.99-6.62-10.42,1.64.46,3.18,2.4,4.4,3.56,1.73,1.76,4.2,4.64,11.56,5.78,0,0-2.02-3.55-6.2-6.23-2.44-1.56-6-2.37-7.84-4.73,3.16-.35,5.23,1.85,7.49,2.47,2.07.57,4.94-.29,6.78-1.05-2.06-1.45-4.86-2.57-7.56-2.43-1.83.09-4.58.37-5.11-1.94-.43-1.9.86-3.49,1.77-5.16,3.98-7.31.49-17.03-8.36-19.31-2.59-.67-5.32-.56-7.75-1.78-4.36-2.18-7.16-6.94-10.81-10.03-4.42-3.74-8.86-7.53-13.86-10.51-5.44-3.24-11.1-5.25-17.81-7.75,7.87-.14,15.64,2.35,23.46,3.03,5.91.53,12.08-1.15,17.42-3.78,7.69-3.79,15.04-8.29,22.98-11.35-3.67-.45-7.18-.98-10.83-.77-4.04.23-8.37-.31-12.37-.93-5.24-.81-10.89-.66-15.96,1.06-5.9,2-11.67,4.25-17.52,6.38-3.28,1.2-6.59,2.17-10,2.88-3.33.69-6.87.23-10.25-.23-13.96-1.9-28.09-2.54-42.17-1.92.01,2.13,1.95,3.85,4.01,4.39,2.06.53,4.24.17,6.35-.14,13.78-1.98,28.32-1.06,41.87,2.94Z"/><path class="cls-5" d="m21.55,197.54c-1.17-2.84-2.06-5.8-2.66-8.82-.85-4.32-.79-9.24-2.84-13.31-2.36-4.69-9.45-7.26-14.46-6.44,9.42-1.53,15.33,1.37,21.91,7.87,3.12,3.08,7.1,7.17,8.77,11.23,2.18,5.3,1.84,10.56,2.51,16.08.3,2.51.22,4.97-.06,7.51-.15,1.37-.87,5.85-1.75,8.86-3.58-4.97-4.54-10.78-7.78-15.91-1.42-2.24-2.64-4.61-3.65-7.07Z"/><path class="cls-5" d="m28.89,155.14c2.93-3.26,5.13-7.66,7.74-11.09,1.46-1.92,3.05-3.79,4.4-5.79.62-.91,1.92-4.64,2.79-4.95-3.47,1.22-7.28,2.48-10.29,4.54-3.12,2.13-6.55,3.17-9.81,5.02-3.68,2.09-7.21,4.62-9.62,8.17-2.11,3.12-3.66,6.63-6.05,9.54-3.79,4.63-9.9,5.49-15.46,6.62,1.6-.32,3.96.39,5.65.37,2.18-.02,4.36-.24,6.5-.63,4.04-.75,7.9-2.31,11.68-3.84,3.94-1.6,8.07-3.79,11.21-6.7.43-.4.85-.83,1.25-1.27Z"/><path class="cls-3" d="m85.44,192.87c1.34,2.02,4.22,2.82,6.43,1.84,2.21-.98,3.54-3.61,3.08-5.98-1.39-7.06-13.44-1.75-9.51,4.15Zm-66.44,15.65c-5.14.88-4.47,8.32-.62,10.45,1.94,1.07,4.61.77,6.09-.88,3.32-3.7-.69-10.38-5.47-9.57Zm127.19,56.46c-2.43-.15-4.73,2.47-4.79,4.74-.07,2.35,1.97,4.6,4.32,4.66,5.61.15,5.2-9.1.47-9.39Zm-62.57,84.29c-1.05-3.06-4.62-5.68-7.65-2.38-1.5,1.63-1.48,4.39-.04,6.07,1.43,1.68,4.06,2.17,6.05,1.21,1.98-.95,2.29-3.01,1.64-4.9Zm51.73,171.56c4.05,4.86,10.95-.31,6.62-5.51-4.32-5.19-10.69.63-6.62,5.51Zm-71.13-35.21c-1.93-2.11-6.3-1.61-7.35,1.21-.68,1.85.31,4.12,2.08,4.98,1.77.86,4.08.31,5.38-1.18,1.26-1.45,1.22-3.49-.05-4.94-.02-.02-.04-.04-.06-.07Z"/></g></g></svg>