<?xml version="1.0" encoding="UTF-8"?><svg id="Layer_2" xmlns="http://www.w3.org/2000/svg" xmlns:xlink="http://www.w3.org/1999/xlink" viewBox="0 0 175 747"><defs><style>.cls-1{clip-path:url(#clippath);}.cls-2{fill:none;}.cls-2,.cls-3,.cls-4,.cls-5,.cls-6{stroke-width:0px;}.cls-3{fill:#3e1b75;}.cls-4{fill:#cd3941;}.cls-5{fill:#7449b7;}.cls-6{fill:#fff;}</style><clipPath id="clippath"><rect class="cls-2" width="175" height="747"/></clipPath></defs><g id="Layer_1-2"><g class="cls-1"><rect class="cls-5" x="-93.77" y="-17.82" width="344.66" height="816.13" transform="translate(-1.28 .26) rotate(-.19)"/><path class="cls-3" d="m-7.38,583.95c3.71,10.74,6.18,13.95,9.22,18.84,6.64,10.68,13.36,26.89,28.99,24.65,6.13-.88,11.99-9.01.49-16.09-6.13-3.78-13.25-5.47-19.85-8.2-13.49-5.57-14.93-15.25-17.86-24.24,5.01,3.95,13.27,6.33,19.05,7.97,9.15,2.6,17.72,9.56,27.57,9.3,17.34-.46,11.85-25.77-13.31-15.5-5.25,2.14-12.09,4.94-20.27,2.03-11.18-3.98-20.54-11.81-27.02-22.04,5.63,2.16,6.82.75,13.53,4.54,10.42,5.89,20.59,4.42,24.78.78,4.43-3.85,2.79-9.64-2.65-11.32-5.19-1.6-12.1.9-16.85,2.87-3.95,1.64-7.38,3.16-11.83,2.8-6.46-.53-10.52-4.08-11.74-9.08-.47-1.92-.27-4.55-1.31-6.27-1.27-2.1-4.63,2.27,1.83,13.82,4.32,7.72,7.84,7.68,7.66,24.96-.13,12.67-11.27,20.33-13.18,27.69-2.88,11.07,12.1,15.45,16.41-.24,2.97-10.82-.41-19.6-1.24-34.35-.03-.59-.41-4.62-.69-6.4,3.55,3.7,5.04,4.2,8.26,13.5Zm32.29,33.71c-1.39,4.17-12.67,1.07-17.91-12.95,4.62,2.92,19.66,7.7,17.91,12.95Zm13.63-30.72c.73,4.15-8.02,5.72-17.29-.21,9.72-4.24,16.65-3.42,17.29.21Zm-29.96-27.8c6.72,2.09,1.43,10.41-13.96,3.44,3.97-1.82,9.28-4.9,13.96-3.44Zm-28.2,53.35c-1.42.9-3.07.31-3.78-1.28-1.87-4.14,3.63-11.75,6.97-14.08,1.8,8.1-.41,13.59-3.18,15.35Z"/><path class="cls-3" d="m102,383.65c.12-.52.72-.82,1.26-.78,1.32.09,3.15,1.07,4.41,1.52,1.59.57,3.15,1.22,4.74,1.77,14.99,5.25,15.64,6.86,20.11,6.24,11.02-1.54,18.51-11.69,27.41-17.27,4.48-2.81,9.69-2.56,14.61-4.04,3.59-1.08,7.4-3.57,11.37-2.84-12.09,20.36-23.03,28.74-49.91,27.06,9.48,5.03,19.09,9.85,28.29,15.44,6.48,3.94,14.87-2.46,21.32-4.06,8.28-2.05,10.45,1.09,16.16.63,1.4-.11,2.82.34,4.19.62-.19-.04-1.37.97-1.62,1.11-1.88,1.06-4.19,1.72-6.06,2.78-9.5,5.42-14.61,6.1-29.25,1.94,2.3,1.62,4.58,3.26,6.85,4.93,13.06,9.59,21.07,17.82,27.73,14.63,2.5-1.2,4.39-3.17,6.65-4.72,5.83-4,14.51-4.75,16.49-5.3,1.45-.4,3.13-.69,4.44-.68-1.14,1.49-2.48,2.44-3.89,3.58-.44.36-5.41,6.17-7.64,7.95-7,5.59-12.56,3.41-19.23,2.61,2.81,1.47,5.47,3.04,8.6,3.81,22.49,5.53,30.56,22.53,37.91,34.99-2.36-.05-4.58-1.08-6.6-2.29-2.02-1.22-3.91-2.65-6.03-3.67-4.35-2.09-15-2.75-26.06-17.74-3.04-4.12-6.1-8.24-9.25-12.28,1.55,8.8,7,17.33-.68,29.74-9.11,14.72-.53,2-9.12,15.57-1.35-2.44-1.53-5.34-1.51-8.12.04-9.27-.65-6.96-1-11.31-.37-4.61.91-9.2,2.99-13.28,3.54-6.97,6.74-7.67,6.07-13.41-.39-3.32-3.42-6.38-19.78-18.24,5.66,8.34,9.22,15.7,6.11,27.32-.82,3.06-.4,5.44-3.15,11.8-1.94-3.31-4.42-14.13-4.75-16.04-2.42-14.02,6.48-19.33-5.23-28.25-1.55-1.18-12.39-7.63-20.69-11.98,8,7.68,15.18,19.64,15.02,32.06-.03,2.1-1.64,13.58-3.81,22.09-5.81-10.57-11.78-21.71-11.86-33.77-.06-8.27,2.72-16.85-5.05-22.76-2.07-1.57-9.57-4.9-12.27-6.12-2.47-1.12-8.81-3.38-9.96-4.48,2.2,2.09,4.25,4.34,6.13,6.72,3.28,4.16,5.62,5.81,6.55,16.12.28,3.06.52,6.06.59,9.13-1.5-1.17-2.79-2.62-3.78-4.24-1.63-2.68-3.57-5.11-5.68-7.43-5.53-6.07-2.74-20.39-10.06-22.38-1.62-.44-12.15-3.35-12.06-4.62Z"/><path class="cls-3" d="m159.6,157.09c1.01,1.08,2.27,1.75,3.52,2.53-.91-2.11-1.99-4.23-2.66-6.43-1.53-5.05-3.1-5.51-7.87-9.77,7.53,1.12,6.99.75,19.15-1.86-9.05-2.09-13.41-1.59-19.09.14,4.03-2.4,9.53-5.33,11.68-14.05,0,0-4.99,2.91-8.5,7.36-.26.33-2.74,2.97-4.43,5.73-.66-2.65-1.09-4.4-2.57-6.32-3.11-4.05-8.14-7.8-8.14-7.8,1.48,4.28,3.81,8.39,6.94,11.98.97,1.12,1.97,1.86,2.74,3.14-7.06-1.04-14.5.74-20.32,4.86,6.93-.2,14.1-.45,20.34-3.46-.65.97-1.3,1.95-1.76,3.03-3.52,8.31-2.96,11.21-3.08,13.46-.04.8-.52,2.63-.44,4.53,4.45-3.74,6.03-14.38,6.39-20.4,4.19,5.47,4.35,9.28,8.12,13.31Z"/><path class="cls-3" d="m21.08,235.9c-1.47-.1-2.85.28-4.3.57,2.11.91,4.36,1.71,6.34,2.85,4.57,2.63,6.03,1.88,12.43,1.72-6.25,4.35-5.6,4.24-12.67,14.49,8.02-4.69,10.85-8.03,13.8-13.19-1.29,4.51-3.28,10.41,1.13,18.23,0,0,1.63-5.54,1.15-11.18-.04-.42-.04-4.05-.7-7.21,2.29,1.48,3.81,2.45,6.2,2.84,5.04.82,11.28.09,11.28.09-4.01-2.1-8.52-3.49-13.27-3.97-1.47-.15-2.71,0-4.14-.4,5.85-4.08,10.05-10.48,11.46-17.47-4.91,4.89-9.96,9.99-12.43,16.47-.19-1.15-.39-2.31-.79-3.41-3.13-8.46-5.53-10.19-6.99-11.92-.52-.61-1.43-2.28-2.79-3.6-.67,5.78,5.47,14.6,9.33,19.23-6.8-1.11-9.53-3.77-15.04-4.12Z"/><path class="cls-3" d="m139.22,323.42c5.34-4.52,9.82-9.86,12.47-16.37,4.19-10.25-.65-15.31,2.64-21.11,1.62-2.86,4.7-5.59,3.36-10.74-1.94-7.46-9.16-5.96-11.28-9.6-1.92-3.31,3.87-4.51,1.58-10.75-1.21,1.5-2.15,2.04-2.91,4.32-.62,1.86-.27,3.96-1.18,5.97-1.62-1.92-1.15-3.93-1.47-6.22-.35-2.49-2.17-5.2-4.03-6.49-1.19,8.22,3.08,8.06,3.13,13.58-3.58-1.01-3.57-5.66-10.6-5.79,3.74,5.47,5.01,4.62,7.75,6.06,4.72,2.48-2.12,9.66,1.17,16.75,1.27,2.74,4.47,4.45,7.16,5.47,6.98,2.64,8.66,21.22-13.14,37.25,1.86-2.96,3.91-5.73,5.12-9.01,5.32-14.48-3.97-21.33-6.43-27.71-.86,6.36-2.43,11.64-2.01,17.28.31,4.2,1.86,7.24,2.78,10.87.93,3.66.22,8.47-3.15,10.68-2.56,1.67-10.5,3.52-9.54,8.69,8.55-1.35,10.57-15.58,43.11-12.51,15.71,1.48,17.73-4.04,29.8-8.54,5.22-1.94,9.7-3.73,13.4-6.91-6.75-1.15-8.07.67-14.08.4-5-.23-9.99-1.24-14.99-.6-16.45,2.1-20.84,8.77-30.69,12.32,6.88-5,16.16-11.57,24.35-23.36,1.55-2.23,2.99-5.28,5.15-6.99,1.85-1.46,4.18-1.85,6.26-2.87,7.1-3.49,8.35-12.34,3.69-17.84-1.07-1.26-2.45-2.38-2.41-4.07.04-2.05,2.42-2.3,3.99-2.55,2.31-.36,4.49-1.8,5.98-3.39-1.69-.32-4.28-.54-5.93.31-1.81.92-3.18,3.15-5.92,3.41,1.15-2.33,4.02-3.64,5.82-5.4,3.07-3,4.16-6.37,4.16-6.37-6.04,2.26-7.63,5.14-8.79,6.94-.83,1.2-1.79,3.12-3.1,3.8-.28-2.98,3.43-5.52,3.78-10.01.15-1.86-.51-3.65-.51-3.65-2.11,2.1-3.88,3.44-4.3,8.03-.12,1.37-.6,4.27-1.02,5.13-2.32-4.39.7-9.06-6.81-14.11.27,4.21-.16,6.8,3.21,11.09,5.75,7.35-4.24,5.44-6.86,15.55-1.12,4.32.22,8.06,2.79,11.52,6.11,8.24-14.3,28.26-31.49,37.55Z"/><path class="cls-3" d="m63.75,293.44c.53,1.73,1.95,5.52,2.18,6.06,5.71,13.63,6.51,23,13.92,31.43,10.74,12.22,22.3,1.72,14.86-6.97-4.95-5.78-18.31-7.79-23.97-19.12-7.72-15.45-4.54-16.96-4.03-25.79.76-13.21-4.18-15.66-4.4-13.22-.18,2.01,1.15,4.28,1.57,6.21,1.09,5.02-1,9.99-6.58,13.3-3.84,2.28-7.59,2.41-11.86,2.66-5.13.31-12.44,1.08-16.41,4.79-4.16,3.89-3.1,9.82,2.57,11.34,5.37,1.44,15.15-1.69,21.94-11.55,4.37-6.35,6.06-5.6,10.17-10.01-1.35,12.04-6.34,23.17-14.65,31.64-6.08,6.2-13.45,6.67-19.12,7.05-27.11,1.79-20.97,26.94-5.18,19.77,8.98-4.08,13.63-14.09,20.72-20.43,4.48-4,10.86-9.76,13.63-15.51,1.3,9.37,4.24,18.7-5.44,29.61-4.74,5.34-10.4,9.98-14.26,16.06-7.23,11.4,1.59,16.14,7.49,14.25,15.03-4.82,13.97-22.34,15.27-34.85.59-5.73,1.4-9.7.04-20.98-1.18-9.77-.06-10.87,1.51-15.75Zm-5.35,40.71c1.42,14.9-7.35,22.63-10.43,19.48-3.87-3.95,7.56-14.84,10.43-19.48Zm-20.68-9.92c-5.73,9.39-14.29,11.81-15.45,7.76-1.02-3.54,4.86-7.31,15.45-7.76Zm13.37-33.37c-10.79,13.01-19.19,7.85-14.06,3.02,3.57-3.36,9.69-2.92,14.06-3.02Zm25.07,26.23c4.02.63,12.3,5.06,12.43,9.61.05,1.75-1.17,2.99-2.84,2.8-3.27-.37-7.65-4.34-9.58-12.41Z"/><path class="cls-3" d="m-1.45,417.65c1.01,1.08,2.27,1.75,3.52,2.53-.91-2.11-1.99-4.23-2.66-6.43-1.53-5.05-3.1-5.51-7.87-9.77,7.53,1.12,6.99.75,19.15-1.86-9.05-2.09-13.41-1.59-19.09.14,4.03-2.4,9.53-5.33,11.68-14.05,0,0-4.99,2.91-8.5,7.36-.26.33-2.74,2.97-4.43,5.73-.66-2.65-1.09-4.4-2.57-6.32-3.11-4.05-8.14-7.8-8.14-7.8,1.48,4.28,3.81,8.39,6.94,11.98.97,1.12,1.97,1.86,2.74,3.14-7.06-1.04-14.5.74-20.32,4.86,6.93-.2,14.1-.45,20.34-3.46-.65.97-1.3,1.95-1.76,3.03-3.52,8.31-2.96,11.21-3.08,13.46-.04.8-.52,2.63-.44,4.53,4.45-3.74,6.03-14.38,6.39-20.4,4.19,5.47,4.35,9.28,8.12,13.31Z"/><path class="cls-3" d="m-19.09,265.17c-.1-.04-.19-.08-.29-.12,1.48-.97,3.25-1.4,4.98-1.8,2.29-.54,4.68-1.37,7.01-1.64,2.28-.27,5.13.21,7.33.78-.81-.75-1.89-2.11-2.22-2.66-2.41-4.1-2.41-6.97-2.56-10.22-.06-1.29.08-2.63.64-3.76,1.83,2.23,3.31,4.73,4.42,7.39.85,2.05,1.33,4.32,1.52,6.49.03.3.1,1.63.06,2.48,3.5-2.25,7.51-2.85,10.75-2.44,1.24.16,2.34.49,3.49.97-.69.68-1.32,1.23-2.14,1.73-.87.53-1.96.7-2.91,1.04-2.14.77-2.8,1.7-8.7.59,1.72,2.77,3.19,8.41.79,15-.59-1-1.17-1.9-1.48-3.01-.34-1.25-.92-2.49-1.37-3.71-.91-2.46-.37-5.9.16-8.01-1.29.75-2.8,1.3-4.16,1.89-5.47,2.36-8.7,1.77-15.31-1.01Z"/><path class="cls-4" d="m24.24,445.59c-1.6.62-2.99,1.91-3.81,3.54-1.39,2.76-.97,6.43.99,8.66,4.93,5.59,13.91-.48,11.46-7.85-1.2-3.6-5.28-5.66-8.64-4.35Zm-2.07,9.67c-.93-.46-1.6-1.68-1.46-3.11.11-1.06.87-2.82,1.9-3.28,1.86-.82,2.81,1.28,2.89,2.8.08,1.48-1.39,4.54-3.33,3.59Zm35.26,16.35c-1.55-.2-3.16.17-4.5.98-3.04,1.83-4.4,6.01-3.02,9.27,1.38,3.27,5.32,5.21,8.75,4.31,8.22-2.16,7.04-13.51-1.23-14.56Zm-1.76,11.09c-1.43,1.12-3.09-.51-3.63-1.93-.46-1.22-.49-3.51.74-4.33,1.9-1.27,3.6,1.88,3.82,3.34.16,1.07-.03,2.21-.93,2.91Z"/><path class="cls-3" d="m90.97,486.96c-.61-1.43-.37-3.54-.52-5.08-.2-2.17-.47-4.33-.79-6.48-.61-4.13-1.39-8.25-2.39-12.3-1.88-7.6-5.79-14.97-12.17-19.5-1.66-1.18-3.81-2.18-5.68-1.36-6.16,2.72.06,15.71,1.68,19.76,2.05,5.11,6.53,11.76,10.23,16.76-5.64-4.84-11.82-9.08-18.44-12.47-2.94-1.51-6-3.46-7.37-6.67-1.09-2.57-1.68-5.89-2.55-8.52-1.32-3.95-2.73-7.21-5.09-10.64-1.3-1.89-2.78-3.75-4.8-4.82-2.02-1.08-4.71-1.19-6.47.29-1.43,1.21-1.97,3.24-1.77,5.1.2,1.86,1.02,3.6,1.93,5.24,2.74,4.95,8.66,11.64,13.98,15.45-7.4-.4-17.37,1.41-24.45,4.72-1.89.88-3.96,2.21-4.14,4.28-.15,1.73,1.18,3.32,2.78,3.99,1.6.67,3.4.61,5.13.45,5.07-.49,10.04-1.86,14.67-3.97,2.35-1.07,4.61-2.34,6.76-3.79,2.91-1.96,6.24-1.74,9.35-.11,2.86,1.49,5.66,3.1,8.38,4.83,6.51,4.14,11.83,8.82,17.82,15.08-8.1-1.16-24.54.51-32.14,7.03-1.61,1.38-3.25,3.43-2.51,5.42.6,1.61,2.48,2.3,4.17,2.6,6.11,1.09,12.46-.38,18.08-3.02,3.08-1.44,5.98-3.22,8.78-5.14,2.06-1.41,5.39-4.47,7.63-1.72,2.63,3.23,4.11,7.46,6.17,11.08.62,1.09,1.27,2.21,2.26,2.98,1,.77,2.05,1.25,3.13.62-.91-3.74-4.07-8.35-6.7-12.11-1.78-2.54-3.7-5.06-4.94-7.95Z"/><path class="cls-3" d="m75.24,208.44c3.01.94,5.71,2.6,8.41,4.11,7.88,4.4,16.31,7.59,25.01,9.85-7.96-.06-15.94,2.14-22.7,6.34-1.36.84-2.7,1.8-3.55,3.15-.85,1.35-1.1,3.19-.23,4.53,1.19,1.83,3.79,1.99,5.96,1.78,17.82-1.68,26.17-10.95,28.3-12.38,2.14-1.44,5.32-.75,7.66-.42,3.11.43,6.23.78,9.35,1.02-1.36-3.33-5.67-4.04-9.25-4.44-9.8-1.1-5.45-3.86-13.6-13.75-3.7-4.48-8.34-8.29-13.62-10.74-1.77-.82-5.16-1.52-6.46.4-3.15,4.63,8.41,17.51,20.04,21.85-10.62-2.31-21.31-6.07-29.96-11.76-2.96-1.95-.26-5.57.93-7.76,9.31-17.07,6.65-30.31,2.39-31.43-2.05-.54-3.92,1.3-5.13,3.04-5.72,8.23-5.72,24.75-3.74,32.69-6.83-5.33-12.03-10.14-16.81-16.2-2-2.53-3.88-5.16-5.65-7.85-1.93-2.93-2.49-6.23-.83-9.31,5.92-11.04,8.73-31.13.34-29.52-2.05.39-3.24,2.56-3.84,4.55-1.98,6.58-3.16,17.9-2.22,24.81-4.33-4.91-11.59-10.12-16.79-12.35-9.97-4.27-13.06,2.69-9.93,7.35,5.03,7.5,22.71,9.21,25.13,9.96,3.34,1.04,5.59,3.89,7.39,6.66,4.05,6.24,8.89,11.96,14.27,17.08-5.82-3.75-12.04-6.79-17.74-9-4.03-1.56-17.71-5.56-19.79.85-.63,1.94.58,3.98,1.92,5.51,9.12,10.42,25.27,11.52,39.64,11.39,1.55-.01,3.62-.47,5.11,0Z"/><path class="cls-4" d="m71.17,176.39c.55-3.5-1.78-7.23-5.17-8.27-3.39-1.04-7.41.74-8.92,3.94-.67,1.42-.87,3.05-.52,4.58,1.88,8.12,13.29,8.15,14.61-.25Zm-10.26-4.86c.69-1.3,2.97-1.5,4.23-1.17,1.47.39,3.26,1.88,2.28,3.42-.61.96-1.72,1.27-2.8,1.22-1.48-.07-4.78-1.44-3.71-3.46Zm-30.46-29.42c-1.54.98-2.68,2.49-3.14,4.15-.96,3.48,1.49,7.32,5.2,8.15,7.58,1.69,12.71-7.85,6.65-12.19-2.41-1.72-6.11-1.77-8.71-.11Zm3.04,4.79c-1.52.08-3.71-.66-3.08-2.59.35-1.08,2.03-2.01,3.07-2.22,1.4-.29,2.69.26,3.24,1.14,1.14,1.84-1.75,3.6-3.23,3.68Zm45.43,69.31c-3.5-3.81-10.79-1.84-12.43,2.8-2.78,7.84,9.28,15.28,13.51,6.75,1.53-3.07,1.29-6.96-1.08-9.55Zm-5.08,10.12c-1.56,1.22-4.6-.49-5.29-2.2-1.77-4.42,4.58-4.41,5.97-.76.39,1.01.17,2.3-.68,2.96Z"/><path class="cls-4" d="m150.14,551.23c2.54-2.81,2.99-6.99.62-10.05-4.11-5.31-12.99-3.39-14.52,3.7-1.86,8.58,8.85,11.95,13.91,6.35Zm-7.09-5.04c-2.81.04-4.4-3.59-1.34-5.08,5.61-2.74,6.39,5.01,1.34,5.08Zm1.67,37.44c-.49-3.54-3.58-6.29-7.03-6.89-5.19-.91-10.38,4.26-10.24,9.02.09,3.13,2.07,6.15,4.94,7.38,5.84,2.52,13.2-3.25,12.33-9.52Zm-7.73,6.29c-2.94-2.22,1.49-7.34,3.89-5.42,2.57,2.05-1.1,7.53-3.89,5.42Z"/><path class="cls-3" d="m186.44,548.12c-3.19,2.76-6.68,5.31-10.85,6.32-4.87,1.32-10.04,1.56-15.02,2.11-9.43,1.04-10.77,1.47-23.5,8.9-.44.26-2.88,1.47-2.89,2,0-.21,3.56-1.22,3.94-1.32,24.33-6.62,35.23,4.12,40.81,6.28.78.3,1.51.56,2.22,1.02.19.13,1.65,1.54,1.69,1.52-2.88.89-5.59.9-8.54.97-6.1.15-5.58,3.23-18.07.66-3.97-.95-7.66-3.32-11.38-5-3.38-1.53-7.13-2.74-10.88-2.11-3.56.6-6.61,2.75-9.31,5.02-4.36,3.66-8.27,7.87-11.99,12.18-2.07,2.41-4.04,4.91-5.84,7.53-.9,1.31-1.76,2.66-2.57,4.03-.42.72-.83,1.44-1.22,2.18-.24.44-.55,1.44-.89,1.72,2.53-2.07,5.29-5.49,11.52-6.77,3.88-.8,8.73.12,11.97,2.42,1.37.98,3.14,1.62,4.64,2.39-10.66,4.18-12.25,3.83-22.69,2.37-2.55-.36-6.17.53-7.22,4.44l-1.52-.54c6.83-19.23-4.23-11.94-.58-34.87.16-.99.34-1.98.54-2.97.06-.3.32-1.48.58-2.55,2.41,2.41,3.72,5.64,4.78,8.81.5,1.48,1.25,2.73,1.66,4.27,1.84,7.03.81,10.23-2.22,17.19,1.42-3.26,4.19-6.4,6.42-9.13,8.19-10.07,6.7-10.86,6.93-22.21.33-16.1,1.81-16.11,8.59-30.59.84-1.79,2.06-3.39,3.55-4.68,3.68,22.23,6.53,25.62-11.48,49.2,4.34-4.23,8.89-8.28,13.89-11.72,4.79-3.29,10.05-5.76,15.19-8.42,1.43-.74,2.82-1.56,4.02-2.64,3.07-2.76,6.52-5.02,9.43-7.98,11.04-11.26,22.18-7.69,27.18-7.77,2.97-.05,5.85-.87,8.87-.79-3.02,3.08-6.48,5.69-9.77,8.53Z"/><path class="cls-6" d="m-42.6,542.13c-2.85-.46-5.61,1.54-6.07,4.38-.46,2.85,1.54,5.61,4.38,6.07,2.85.46,5.61-1.54,6.07-4.38.46-2.85-1.54-5.61-4.38-6.07ZM141.5-32.88c-1.04-.17-2.04.56-2.21,1.6s.56,2.04,1.6,2.21c1.04.17,2.04-.56,2.21-1.6.17-1.04-.56-2.04-1.6-2.21ZM-125.15,616.25c-2.12-.34-2.64,2.88-.52,3.22,2.12.34,2.64-2.88.52-3.22ZM5.78,270.3c-1.54-.25-3.03.83-3.28,2.37s.83,3.03,2.37,3.28c1.54.25,3.03-.83,3.28-2.37.25-1.54-.83-3.03-2.37-3.28Zm323.37,271.82c-2.55-.41-3.18,3.46-.62,3.87s3.18-3.46.62-3.87Zm-222.88,14.56c-1.82-.29-2.26,2.47-.44,2.76,1.82.29,2.26-2.47.44-2.76Zm99.12-3.27c-1.82-.29-2.26,2.47-.44,2.76s2.26-2.47.44-2.76ZM141.97,52.83c.3-1.87-2.54-2.33-2.84-.46-.3,1.87,2.54,2.33,2.84.46ZM-34.66,247.53c-.39,2.45,3.32,3.05,3.71.6s-3.32-3.05-3.71-.6Zm434.43,234.69c-1.28-.21-2.52.69-2.73,1.97s.69,2.52,1.97,2.73,2.52-.69,2.73-1.97c.21-1.28-.69-2.52-1.97-2.73Zm-241.82,153.07c-.32,2.01,2.73,2.51,3.05.49.32-2.02-2.73-2.51-3.05-.49ZM10.91,294.85c-1.82-.29-2.26,2.47-.44,2.76s2.26-2.47.44-2.76ZM-63.49,23.65c-1.82-.29-2.26,2.47-.44,2.76s2.26-2.47.44-2.76Zm218.65,583.95c-.6,3.73,5.06,4.65,5.66.91.6-3.73-5.06-4.65-5.66-.91Zm134.17,43.83c-1.28-.21-2.52.69-2.73,1.97s.69,2.52,1.97,2.73,2.52-.69,2.73-1.97-.69-2.52-1.97-2.73Zm181.97-105.81c.29-1.82-2.47-2.26-2.76-.44-.29,1.82,2.47,2.26,2.76.44Zm-427.69,69.96c-.34,2.1,2.84,2.61,3.18.51.34-2.1-2.84-2.61-3.18-.51Zm264.74,55.8c-2.7-.44-5.32,1.46-5.75,4.16-.44,2.7,1.46,5.32,4.16,5.75,2.7.44,5.32-1.46,5.76-4.16.44-2.7-1.46-5.32-4.16-5.76Zm121.02-143.57c-2.43-.39-4.78,1.31-5.18,3.74s1.31,4.78,3.74,5.18,4.79-1.31,5.18-3.74-1.31-4.79-3.74-5.18Zm-341.18-36.08c-.29,1.82,2.47,2.26,2.76.44s-2.47-2.26-2.76-.44ZM169.08,5.3c.29-1.82-2.47-2.26-2.76-.44s2.47,2.26,2.76.44Zm19.46,427.13c-1.78-.29-3.5.96-3.79,2.74s.96,3.5,2.74,3.79,3.5-.96,3.79-2.74c.29-1.78-.96-3.5-2.74-3.79Zm214.22,240.73c-1.82-.29-2.26,2.47-.44,2.76,1.82.29,2.26-2.47.44-2.76ZM-39.15,516.64c.39-2.45-3.32-3.05-3.71-.6s3.32,3.05,3.71.6Zm53.54-115.92c-.29,1.82,2.47,2.26,2.76.44.29-1.82-2.47-2.26-2.76-.44ZM183.16,117.84c-.29,1.82,2.47,2.26,2.76.44s-2.47-2.26-2.76-.44Zm-244.02,26.45c-1.95-.31-2.43,2.64-.48,2.95s2.43-2.64.48-2.95Zm190.25,44.22c-1.28-.21-2.52.69-2.73,1.97-.21,1.28.69,2.52,1.97,2.73s2.52-.69,2.73-1.97-.69-2.52-1.97-2.73Zm-23.82,146.4c-1.42-.23-2.79.76-3.02,2.18-.23,1.42.76,2.79,2.18,3.01s2.79-.76,3.01-2.18-.76-2.79-2.18-3.02Zm-135.55,60.78c-1.51-.24-2.97.81-3.22,2.32-.24,1.51.81,2.97,2.32,3.22,1.51.24,2.97-.81,3.22-2.32s-.81-2.97-2.32-3.21Zm-34.21,133.54c-1.52-.24-2.98.81-3.23,2.33-.24,1.52.81,2.98,2.33,3.23,1.52.24,2.98-.82,3.23-2.33s-.82-2.98-2.33-3.23Zm520.06,120.21c-2.55-.41-3.18,3.46-.62,3.87,2.55.41,3.18-3.46.62-3.87ZM146.38,207.22c-.29,1.82,2.47,2.26,2.76.44.29-1.82-2.47-2.26-2.76-.44ZM49.26,6.77c-.29,1.82,2.47,2.26,2.76.44.29-1.82-2.47-2.26-2.76-.44Zm195.14-58.34c-1.82-.29-2.26,2.47-.44,2.76s2.26-2.47.44-2.76ZM-128.05,448.91c-1.82-.29-2.26,2.47-.44,2.76s2.26-2.47.44-2.76Zm425.63,160.42c-1.95-.31-2.43,2.64-.48,2.95,1.95.31,2.43-2.64.48-2.95ZM-23.42-81.47c.44-2.7-1.46-5.32-4.16-5.75s-5.32,1.46-5.76,4.16,1.46,5.32,4.16,5.76,5.32-1.46,5.76-4.16ZM-91.74,492.74c-.38,2.34,3.18,2.92,3.55.57.38-2.34-3.18-2.92-3.55-.57ZM-2.43-56.03c.29-1.82-2.47-2.26-2.76-.44s2.47,2.26,2.76.44ZM49.92,125.04c-2.43-.39-3.03,3.3-.59,3.69s3.03-3.3.59-3.69Zm364.11,421.74c-.29,1.82,2.47,2.26,2.76.44.29-1.82-2.47-2.26-2.76-.44ZM-92.85,290.7c-1.04-.17-2.04.56-2.21,1.6s.56,2.04,1.6,2.21,2.04-.56,2.21-1.6-.56-2.04-1.6-2.21Zm525.86,339.57c-2.12-.34-2.64,2.88-.52,3.22s2.64-2.88.52-3.22ZM.26,48.18c.29-1.82-2.47-2.26-2.76-.44s2.47,2.26,2.76.44Zm209.87,403.27c-1.82-.29-2.26,2.47-.44,2.76s2.26-2.47.44-2.76Zm-141.69,57.79c-1.42-.23-2.79.76-3.02,2.18s.76,2.79,2.18,3.02,2.79-.76,3.01-2.18-.76-2.79-2.18-3.01Z"/></g></g></svg>