<?xml version="1.0" encoding="utf-8"?>
<!-- Generator: Adobe Illustrator 28.0.0, SVG Export Plug-In . SVG Version: 6.00 Build 0)  -->
<svg version="1.1" id="Layer_1" xmlns="http://www.w3.org/2000/svg" xmlns:xlink="http://www.w3.org/1999/xlink" x="0px" y="0px"
	 viewBox="0 0 175 747" style="enable-background:new 0 0 175 747;" xml:space="preserve">
<style type="text/css">
	.st0{clip-path:url(#SVGID_00000000180402183646758960000000777635040843138969_);fill:#A9200F;}
	.st1{clip-path:url(#SVGID_00000000180402183646758960000000777635040843138969_);fill:#5B0912;}
	.st2{clip-path:url(#SVGID_00000000180402183646758960000000777635040843138969_);fill:#CB6671;}
	.st3{clip-path:url(#SVGID_00000000180402183646758960000000777635040843138969_);fill:#FFFFFF;}
</style>
<g>
	<defs>
		<rect id="SVGID_1_" width="175" height="747"/>
	</defs>
	<clipPath id="SVGID_00000168816596328220408940000017553172517265013182_">
		<use xlink:href="#SVGID_1_"  style="overflow:visible;"/>
	</clipPath>
	
		<rect x="-66.5" y="-35.1" transform="matrix(1 -3.316120e-03 3.316120e-03 1 -1.2363 0.353)" style="clip-path:url(#SVGID_00000168816596328220408940000017553172517265013182_);fill:#A9200F;" width="344.7" height="816.1"/>
	<path style="clip-path:url(#SVGID_00000168816596328220408940000017553172517265013182_);fill:#5B0912;" d="M-10.4,572.3
		c3.7,10.7,6.2,14,9.2,18.8c6.6,10.7,13.4,26.9,29,24.7c6.1-0.9,12-9,0.5-16.1c-6.1-3.8-13.2-5.5-19.9-8.2
		C-5,585.9-6.4,576.3-9.4,567.3c5,4,13.3,6.3,19,8c9.1,2.6,17.7,9.6,27.6,9.3c17.3-0.5,11.9-25.8-13.3-15.5
		c-5.2,2.1-12.1,4.9-20.3,2c-11.2-4-20.5-11.8-27-22c5.6,2.2,6.8,0.8,13.5,4.5c10.4,5.9,20.6,4.4,24.8,0.8c4.4-3.8,2.8-9.6-2.7-11.3
		c-5.2-1.6-12.1,0.9-16.9,2.9c-3.9,1.6-7.4,3.2-11.8,2.8c-6.5-0.5-10.5-4.1-11.7-9.1c-0.5-1.9-0.3-4.5-1.3-6.3
		c-1.3-2.1-4.6,2.3,1.8,13.8c4.3,7.7,7.8,7.7,7.7,25c-0.1,12.7-11.3,20.3-13.2,27.7c-2.9,11.1,12.1,15.5,16.4-0.2
		c3-10.8-0.4-19.6-1.2-34.3c0-0.6-0.4-4.6-0.7-6.4C-15.1,562.5-13.6,563-10.4,572.3L-10.4,572.3z M21.9,606
		c-1.4,4.2-12.7,1.1-17.9-13C8.7,596,23.7,600.8,21.9,606z M35.6,575.3c0.7,4.2-8,5.7-17.3-0.2C28,570.9,34.9,571.7,35.6,575.3z
		 M5.6,547.5c6.7,2.1,1.4,10.4-14,3.4C-4.4,549.1,0.9,546,5.6,547.5z M-22.6,600.9c-1.4,0.9-3.1,0.3-3.8-1.3
		c-1.9-4.1,3.6-11.8,7-14.1C-17.6,593.6-19.8,599.1-22.6,600.9L-22.6,600.9z"/>
	<path style="clip-path:url(#SVGID_00000168816596328220408940000017553172517265013182_);fill:#5B0912;" d="M99,372
		c0.1-0.5,0.7-0.8,1.3-0.8c1.3,0.1,3.2,1.1,4.4,1.5c1.6,0.6,3.2,1.2,4.7,1.8c15,5.2,15.6,6.9,20.1,6.2c11-1.5,18.5-11.7,27.4-17.3
		c4.5-2.8,9.7-2.6,14.6-4c3.6-1.1,7.4-3.6,11.4-2.8c-12.1,20.4-23,28.7-49.9,27.1c9.5,5,19.1,9.9,28.3,15.4
		c6.5,3.9,14.9-2.5,21.3-4.1c8.3-2,10.4,1.1,16.2,0.6c1.4-0.1,2.8,0.3,4.2,0.6c-0.2,0-1.4,1-1.6,1.1c-1.9,1.1-4.2,1.7-6.1,2.8
		c-9.5,5.4-14.6,6.1-29.2,1.9c2.3,1.6,4.6,3.3,6.9,4.9c13.1,9.6,21.1,17.8,27.7,14.6c2.5-1.2,4.4-3.2,6.6-4.7
		c5.8-4,14.5-4.8,16.5-5.3c1.4-0.4,3.1-0.7,4.4-0.7c-1.1,1.5-2.5,2.4-3.9,3.6c-0.4,0.4-5.4,6.2-7.6,8c-7,5.6-12.6,3.4-19.2,2.6
		c2.8,1.5,5.5,3,8.6,3.8c22.5,5.5,30.6,22.5,37.9,35c-2.4,0-4.6-1.1-6.6-2.3s-3.9-2.6-6-3.7c-4.4-2.1-15-2.8-26.1-17.7
		c-3-4.1-6.1-8.2-9.2-12.3c1.6,8.8,7,17.3-0.7,29.7c-9.1,14.7-0.5,2-9.1,15.6c-1.4-2.4-1.5-5.3-1.5-8.1c0-9.3-0.6-7-1-11.3
		c-0.4-4.6,0.9-9.2,3-13.3c3.5-7,6.7-7.7,6.1-13.4c-0.4-3.3-3.4-6.4-19.8-18.2c5.7,8.3,9.2,15.7,6.1,27.3c-0.8,3.1-0.4,5.4-3.1,11.8
		c-1.9-3.3-4.4-14.1-4.8-16c-2.4-14,6.5-19.3-5.2-28.2c-1.6-1.2-12.4-7.6-20.7-12c8,7.7,15.2,19.6,15,32.1c0,2.1-1.6,13.6-3.8,22.1
		c-5.8-10.6-11.8-21.7-11.9-33.8c-0.1-8.3,2.7-16.9-5.1-22.8c-2.1-1.6-9.6-4.9-12.3-6.1c-2.5-1.1-8.8-3.4-10-4.5
		c2.2,2.1,4.2,4.3,6.1,6.7c3.3,4.2,5.6,5.8,6.6,16.1c0.3,3.1,0.5,6.1,0.6,9.1c-1.5-1.2-2.8-2.6-3.8-4.2c-1.6-2.7-3.6-5.1-5.7-7.4
		c-5.5-6.1-2.7-20.4-10.1-22.4C109.5,376.2,99,373.3,99,372L99,372z"/>
	<path style="clip-path:url(#SVGID_00000168816596328220408940000017553172517265013182_);fill:#5B0912;" d="M156.6,145.4
		c1,1.1,2.3,1.8,3.5,2.5c-0.9-2.1-2-4.2-2.7-6.4c-1.5-5.1-3.1-5.5-7.9-9.8c7.5,1.1,7,0.8,19.1-1.9c-9.1-2.1-13.4-1.6-19.1,0.1
		c4-2.4,9.5-5.3,11.7-14.1c0,0-5,2.9-8.5,7.4c-0.3,0.3-2.7,3-4.4,5.7c-0.7-2.7-1.1-4.4-2.6-6.3c-3.1-4.1-8.1-7.8-8.1-7.8
		c1.5,4.3,3.8,8.4,6.9,12c1,1.1,2,1.9,2.7,3.1c-7.1-1-14.5,0.7-20.3,4.9c6.9-0.2,14.1-0.4,20.3-3.5c-0.6,1-1.3,1.9-1.8,3
		c-3.5,8.3-3,11.2-3.1,13.5c0,0.8-0.5,2.6-0.4,4.5c4.4-3.7,6-14.4,6.4-20.4C152.7,137.6,152.9,141.4,156.6,145.4L156.6,145.4z"/>
	<path style="clip-path:url(#SVGID_00000168816596328220408940000017553172517265013182_);fill:#5B0912;" d="M19.9,226.8
		c-1.5-0.1-2.8,0.4-4.3,0.7c2.1,0.9,4.4,1.6,6.4,2.7c4.6,2.5,6.1,1.7,12.5,1.3c-6.1,4.5-5.5,4.4-12.2,14.9
		c7.9-4.9,10.6-8.4,13.4-13.6c-1.2,4.6-3,10.5,1.7,18.2c0,0,1.5-5.6,0.8-11.2c0-0.4-0.2-4-0.9-7.2c2.3,1.4,3.9,2.3,6.3,2.6
		c5.1,0.7,11.3-0.2,11.3-0.2c-4.1-2-8.6-3.2-13.4-3.6c-1.5-0.1-2.7,0.1-4.2-0.3c5.7-4.3,9.7-10.8,10.9-17.8
		c-4.8,5-9.7,10.3-11.9,16.8c-0.2-1.1-0.5-2.3-0.9-3.4c-3.4-8.4-5.8-10-7.3-11.7c-0.5-0.6-1.5-2.2-2.9-3.5
		c-0.5,5.8,5.9,14.4,9.9,18.9C28.2,229.5,25.3,227,19.9,226.8L19.9,226.8z"/>
	<path style="clip-path:url(#SVGID_00000168816596328220408940000017553172517265013182_);fill:#5B0912;" d="M136.3,311.8
		c5.3-4.5,9.8-9.9,12.5-16.4c4.2-10.2-0.6-15.3,2.6-21.1c1.6-2.9,4.7-5.6,3.4-10.7c-1.9-7.5-9.2-6-11.3-9.6
		c-1.9-3.3,3.9-4.5,1.6-10.8c-1.2,1.5-2.1,2-2.9,4.3c-0.6,1.9-0.3,4-1.2,6c-1.6-1.9-1.1-3.9-1.5-6.2c-0.4-2.5-2.2-5.2-4-6.5
		c-1.2,8.2,3.1,8.1,3.1,13.6c-3.6-1-3.6-5.7-10.6-5.8c3.7,5.5,5,4.6,7.7,6.1c4.7,2.5-2.1,9.7,1.2,16.8c1.3,2.7,4.5,4.5,7.2,5.5
		c7,2.6,8.7,21.2-13.1,37.2c1.9-3,3.9-5.7,5.1-9c5.3-14.5-4-21.3-6.4-27.7c-0.9,6.4-2.4,11.6-2,17.3c0.3,4.2,1.9,7.2,2.8,10.9
		c0.9,3.7,0.2,8.5-3.2,10.7c-2.6,1.7-10.5,3.5-9.5,8.7c8.6-1.4,10.6-15.6,43.1-12.5c15.7,1.5,17.7-4,29.8-8.5
		c5.2-1.9,9.7-3.7,13.4-6.9c-6.8-1.1-8.1,0.7-14.1,0.4c-5-0.2-10-1.2-15-0.6c-16.4,2.1-20.8,8.8-30.7,12.3
		c6.9-5,16.2-11.6,24.4-23.4c1.6-2.2,3-5.3,5.1-7c1.9-1.5,4.2-1.9,6.3-2.9c7.1-3.5,8.4-12.3,3.7-17.8c-1.1-1.3-2.4-2.4-2.4-4.1
		c0-2.1,2.4-2.3,4-2.6c2.3-0.4,4.5-1.8,6-3.4c-1.7-0.3-4.3-0.5-5.9,0.3c-1.8,0.9-3.2,3.1-5.9,3.4c1.1-2.3,4-3.6,5.8-5.4
		c3.1-3,4.2-6.4,4.2-6.4c-6,2.3-7.6,5.1-8.8,6.9c-0.8,1.2-1.8,3.1-3.1,3.8c-0.3-3,3.4-5.5,3.8-10c0.1-1.9-0.5-3.6-0.5-3.6
		c-2.1,2.1-3.9,3.4-4.3,8c-0.1,1.4-0.6,4.3-1,5.1c-2.3-4.4,0.7-9.1-6.8-14.1c0.3,4.2-0.2,6.8,3.2,11.1c5.8,7.4-4.2,5.4-6.9,15.6
		c-1.1,4.3,0.2,8.1,2.8,11.5C173.9,282.5,153.5,302.5,136.3,311.8L136.3,311.8z"/>
	<path style="clip-path:url(#SVGID_00000168816596328220408940000017553172517265013182_);fill:#5B0912;" d="M60.8,281.8
		c0.5,1.7,2,5.5,2.2,6.1c5.7,13.6,6.5,23,13.9,31.4c10.7,12.2,22.3,1.7,14.9-7c-4.9-5.8-18.3-7.8-24-19.1c-7.7-15.5-4.5-17-4-25.8
		c0.8-13.2-4.2-15.7-4.4-13.2c-0.2,2,1.2,4.3,1.6,6.2c1.1,5-1,10-6.6,13.3c-3.8,2.3-7.6,2.4-11.9,2.7c-5.1,0.3-12.4,1.1-16.4,4.8
		c-4.2,3.9-3.1,9.8,2.6,11.3c5.4,1.4,15.1-1.7,21.9-11.5c4.4-6.4,6.1-5.6,10.2-10c-1.3,12-6.3,23.2-14.7,31.6
		c-6.1,6.2-13.5,6.7-19.1,7c-27.1,1.8-21,26.9-5.2,19.8c9-4.1,13.6-14.1,20.7-20.4c4.5-4,10.9-9.8,13.6-15.5
		c1.3,9.4,4.2,18.7-5.4,29.6c-4.7,5.3-10.4,10-14.3,16.1c-7.2,11.4,1.6,16.1,7.5,14.2c15-4.8,14-22.3,15.3-34.9
		c0.6-5.7,1.4-9.7,0-21C58.1,287.8,59.2,286.7,60.8,281.8L60.8,281.8z M55.4,322.5c1.4,14.9-7.3,22.6-10.4,19.5
		C41.1,338,52.6,327.1,55.4,322.5z M34.8,312.6c-5.7,9.4-14.3,11.8-15.5,7.8C18.3,316.8,24.2,313,34.8,312.6z M48.1,279.2
		c-10.8,13-19.2,7.9-14.1,3C37.6,278.9,43.7,279.3,48.1,279.2z M73.2,305.4c4,0.6,12.3,5.1,12.4,9.6c0.1,1.8-1.2,3-2.8,2.8
		C79.5,317.5,75.1,313.5,73.2,305.4L73.2,305.4z"/>
	<path style="clip-path:url(#SVGID_00000168816596328220408940000017553172517265013182_);fill:#5B0912;" d="M-4.4,406
		c1,1.1,2.3,1.8,3.5,2.5c-0.9-2.1-2-4.2-2.7-6.4c-1.5-5-3.1-5.5-7.9-9.8c7.5,1.1,7,0.8,19.1-1.9c-9.1-2.1-13.4-1.6-19.1,0.1
		c4-2.4,9.5-5.3,11.7-14c0,0-5,2.9-8.5,7.4c-0.3,0.3-2.7,3-4.4,5.7c-0.7-2.6-1.1-4.4-2.6-6.3c-3.1-4-8.1-7.8-8.1-7.8
		c1.5,4.3,3.8,8.4,6.9,12c1,1.1,2,1.9,2.7,3.1c-7.1-1-14.5,0.7-20.3,4.9c6.9-0.2,14.1-0.5,20.3-3.5c-0.6,1-1.3,2-1.8,3
		c-3.5,8.3-3,11.2-3.1,13.5c0,0.8-0.5,2.6-0.4,4.5c4.4-3.7,6-14.4,6.4-20.4C-8.3,398.2-8.2,402-4.4,406L-4.4,406z"/>
	<path style="clip-path:url(#SVGID_00000168816596328220408940000017553172517265013182_);fill:#5B0912;" d="M-22,253.5
		c-0.1,0-0.2-0.1-0.3-0.1c1.5-1,3.2-1.4,5-1.8c2.3-0.5,4.7-1.4,7-1.6c2.3-0.3,5.1,0.2,7.3,0.8c-0.8-0.8-1.9-2.1-2.2-2.7
		c-2.4-4.1-2.4-7-2.6-10.2c-0.1-1.3,0.1-2.6,0.6-3.8c1.8,2.2,3.3,4.7,4.4,7.4c0.9,2.1,1.3,4.3,1.5,6.5c0,0.3,0.1,1.6,0.1,2.5
		c3.5-2.2,7.5-2.9,10.8-2.4c1.2,0.2,2.3,0.5,3.5,1c-0.7,0.7-1.3,1.2-2.1,1.7c-0.9,0.5-2,0.7-2.9,1c-2.1,0.8-2.8,1.7-8.7,0.6
		c1.7,2.8,3.2,8.4,0.8,15c-0.6-1-1.2-1.9-1.5-3c-0.3-1.2-0.9-2.5-1.4-3.7c-0.9-2.5-0.4-5.9,0.2-8c-1.3,0.8-2.8,1.3-4.2,1.9
		C-12.2,256.9-15.4,256.3-22,253.5L-22,253.5z"/>
	<path style="clip-path:url(#SVGID_00000168816596328220408940000017553172517265013182_);fill:#CB6671;" d="M21.3,434
		c-1.6,0.6-3,1.9-3.8,3.5c-1.4,2.8-1,6.4,1,8.7c4.9,5.6,13.9-0.5,11.5-7.9C28.7,434.7,24.6,432.6,21.3,434z M19.2,443.6
		c-0.9-0.5-1.6-1.7-1.5-3.1c0.1-1.1,0.9-2.8,1.9-3.3c1.9-0.8,2.8,1.3,2.9,2.8C22.6,441.5,21.1,444.6,19.2,443.6z M54.5,460
		c-1.5-0.2-3.2,0.2-4.5,1c-3,1.8-4.4,6-3,9.3c1.4,3.3,5.3,5.2,8.8,4.3C63.9,472.4,62.7,461,54.5,460z M52.7,471.1
		c-1.4,1.1-3.1-0.5-3.6-1.9c-0.5-1.2-0.5-3.5,0.7-4.3c1.9-1.3,3.6,1.9,3.8,3.3C53.8,469.2,53.6,470.4,52.7,471.1L52.7,471.1z"/>
	<path style="clip-path:url(#SVGID_00000168816596328220408940000017553172517265013182_);fill:#5B0912;" d="M88,475.3
		c-0.6-1.4-0.4-3.5-0.5-5.1c-0.2-2.2-0.5-4.3-0.8-6.5c-0.6-4.1-1.4-8.2-2.4-12.3c-1.9-7.6-5.8-15-12.2-19.5
		c-1.7-1.2-3.8-2.2-5.7-1.4c-6.2,2.7,0.1,15.7,1.7,19.8c2.1,5.1,6.5,11.8,10.2,16.8c-5.6-4.8-11.8-9.1-18.4-12.5
		c-2.9-1.5-6-3.5-7.4-6.7c-1.1-2.6-1.7-5.9-2.5-8.5c-1.3-4-2.7-7.2-5.1-10.6c-1.3-1.9-2.8-3.8-4.8-4.8c-2-1.1-4.7-1.2-6.5,0.3
		c-1.4,1.2-2,3.2-1.8,5.1c0.2,1.9,1,3.6,1.9,5.2c2.7,5,8.7,11.6,14,15.5c-7.4-0.4-17.4,1.4-24.5,4.7c-1.9,0.9-4,2.2-4.1,4.3
		c-0.1,1.7,1.2,3.3,2.8,4c1.6,0.7,3.4,0.6,5.1,0.5c5.1-0.5,10-1.9,14.7-4c2.3-1.1,4.6-2.3,6.8-3.8c2.9-2,6.2-1.7,9.3-0.1
		c2.9,1.5,5.7,3.1,8.4,4.8c6.5,4.1,11.8,8.8,17.8,15.1c-8.1-1.2-24.5,0.5-32.1,7c-1.6,1.4-3.2,3.4-2.5,5.4c0.6,1.6,2.5,2.3,4.2,2.6
		c6.1,1.1,12.5-0.4,18.1-3c3.1-1.4,6-3.2,8.8-5.1c2.1-1.4,5.4-4.5,7.6-1.7c2.6,3.2,4.1,7.5,6.2,11.1c0.6,1.1,1.3,2.2,2.3,3
		c1,0.8,2.1,1.2,3.1,0.6c-0.9-3.7-4.1-8.4-6.7-12.1C91.2,480.8,89.2,478.3,88,475.3L88,475.3z"/>
	<path style="clip-path:url(#SVGID_00000168816596328220408940000017553172517265013182_);fill:#5B0912;" d="M74.3,202.8
		c3,0.8,5.8,2.4,8.6,3.8c8.1,4.1,16.6,6.9,25.4,8.8c-8,0.3-15.8,2.8-22.4,7.3c-1.3,0.9-2.6,1.9-3.4,3.3c-0.8,1.4-1,3.2,0,4.5
		c1.3,1.8,3.9,1.8,6,1.5c17.7-2.4,25.7-12,27.8-13.5s5.3-1,7.6-0.7c3.1,0.3,6.3,0.5,9.4,0.6c-1.5-3.3-5.8-3.8-9.4-4.1
		c-9.8-0.7-5.6-3.6-14.2-13.2c-3.9-4.3-8.7-7.9-14.1-10.2c-1.8-0.8-5.2-1.3-6.4,0.7c-2.9,4.8,9.1,17.1,20.9,21
		c-10.7-1.9-21.5-5.2-30.4-10.5c-3-1.8-0.5-5.6,0.6-7.8c8.6-17.4,5.4-30.6,1.1-31.5c-2.1-0.4-3.9,1.5-5,3.2
		c-5.4,8.5-4.7,25-2.4,32.8c-7.1-5-12.4-9.6-17.5-15.5c-2.1-2.4-4.1-5-6-7.6c-2-2.8-2.7-6.1-1.2-9.3c5.5-11.3,7.4-31.5-0.9-29.5
		c-2,0.5-3.1,2.7-3.7,4.7c-1.7,6.7-2.4,18-1.2,24.9c-4.5-4.7-12-9.6-17.3-11.6c-10.1-3.9-12.9,3.2-9.6,7.8
		c5.3,7.3,23.1,8.3,25.5,8.9c3.4,0.9,5.7,3.6,7.7,6.4c4.3,6.1,9.4,11.6,15,16.5c-6-3.5-12.3-6.3-18.1-8.3
		c-4.1-1.4-17.9-4.8-19.7,1.7c-0.5,2,0.7,3.9,2.1,5.4c9.5,10,25.7,10.5,40.1,9.8C70.7,202.9,72.8,202.4,74.3,202.8L74.3,202.8z"/>
	<path style="clip-path:url(#SVGID_00000168816596328220408940000017553172517265013182_);fill:#CB6671;" d="M68.9,170.9
		c0.4-3.5-2.1-7.1-5.5-8.1c-3.4-0.9-7.4,1-8.8,4.3c-0.6,1.4-0.7,3.1-0.3,4.6C56.5,179.8,67.9,179.3,68.9,170.9L68.9,170.9z
		 M58.4,166.5c0.6-1.3,2.9-1.6,4.2-1.4c1.5,0.3,3.3,1.7,2.4,3.3c-0.6,1-1.7,1.3-2.8,1.3C60.8,169.8,57.4,168.5,58.4,166.5
		L58.4,166.5z M26.8,138.3c-1.5,1-2.6,2.6-3,4.3c-0.8,3.5,1.8,7.3,5.5,7.9c7.6,1.4,12.4-8.4,6.1-12.4
		C33,136.5,29.3,136.6,26.8,138.3z M30,143c-1.5,0.1-3.7-0.5-3.2-2.5c0.3-1.1,2-2.1,3-2.4c1.4-0.3,2.7,0.1,3.3,1
		C34.3,141,31.5,142.8,30,143L30,143z M78.3,210.4c-3.7-3.7-10.8-1.4-12.3,3.3c-2.5,7.9,9.9,14.9,13.8,6.2
		C81.1,216.7,80.8,212.9,78.3,210.4L78.3,210.4z M73.6,220.7c-1.5,1.3-4.6-0.3-5.4-2c-1.9-4.3,4.4-4.6,5.9-1
		C74.6,218.7,74.4,220,73.6,220.7L73.6,220.7z"/>
	<path style="clip-path:url(#SVGID_00000168816596328220408940000017553172517265013182_);fill:#CB6671;" d="M147.2,539.6
		c2.5-2.8,3-7,0.6-10c-4.1-5.3-13-3.4-14.5,3.7C131.4,541.8,142.1,545.2,147.2,539.6L147.2,539.6z M140.1,534.6
		c-2.8,0-4.4-3.6-1.3-5.1C144.4,526.7,145.1,534.5,140.1,534.6z M141.8,572c-0.5-3.5-3.6-6.3-7-6.9c-5.2-0.9-10.4,4.3-10.2,9
		c0.1,3.1,2.1,6.2,4.9,7.4C135.3,584,142.6,578.3,141.8,572L141.8,572z M134,578.3c-2.9-2.2,1.5-7.3,3.9-5.4
		C140.5,574.9,136.8,580.4,134,578.3z"/>
	<path style="clip-path:url(#SVGID_00000168816596328220408940000017553172517265013182_);fill:#5B0912;" d="M183.5,536.5
		c-3.2,2.8-6.7,5.3-10.9,6.3c-4.9,1.3-10,1.6-15,2.1c-9.4,1-10.8,1.5-23.5,8.9c-0.4,0.3-2.9,1.5-2.9,2c0-0.2,3.6-1.2,3.9-1.3
		c24.3-6.6,35.2,4.1,40.8,6.3c0.8,0.3,1.5,0.6,2.2,1c0.2,0.1,1.6,1.5,1.7,1.5c-2.9,0.9-5.6,0.9-8.5,1c-6.1,0.2-5.6,3.2-18.1,0.7
		c-4-1-7.7-3.3-11.4-5c-3.4-1.5-7.1-2.7-10.9-2.1c-3.6,0.6-6.6,2.8-9.3,5c-4.4,3.7-8.3,7.9-12,12.2c-2.1,2.4-4,4.9-5.8,7.5
		c-0.9,1.3-1.8,2.7-2.6,4c-0.4,0.7-0.8,1.4-1.2,2.2c-0.2,0.4-0.6,1.4-0.9,1.7c2.5-2.1,5.3-5.5,11.5-6.8c3.9-0.8,8.7,0.1,12,2.4
		c1.4,1,3.1,1.6,4.6,2.4c-10.7,4.2-12.2,3.8-22.7,2.4c-2.6-0.4-6.2,0.5-7.2,4.4l-1.5-0.5c6.8-19.2-4.2-11.9-0.6-34.9
		c0.2-1,0.3-2,0.5-3c0.1-0.3,0.3-1.5,0.6-2.5c2.4,2.4,3.7,5.6,4.8,8.8c0.5,1.5,1.2,2.7,1.7,4.3c1.8,7,0.8,10.2-2.2,17.2
		c1.4-3.3,4.2-6.4,6.4-9.1c8.2-10.1,6.7-10.9,6.9-22.2c0.3-16.1,1.8-16.1,8.6-30.6c0.8-1.8,2.1-3.4,3.6-4.7
		c3.7,22.2,6.5,25.6-11.5,49.2c4.3-4.2,8.9-8.3,13.9-11.7c4.8-3.3,10.1-5.8,15.2-8.4c1.4-0.7,2.8-1.6,4-2.6c3.1-2.8,6.5-5,9.4-8
		c11-11.3,22.2-7.7,27.2-7.8c3,0,5.9-0.9,8.9-0.8C190.2,531,186.8,533.6,183.5,536.5L183.5,536.5z"/>
	<path style="clip-path:url(#SVGID_00000168816596328220408940000017553172517265013182_);fill:#FFFFFF;" d="M-45.6,530.5
		c-2.8-0.5-5.6,1.5-6.1,4.4s1.5,5.6,4.4,6.1c2.8,0.5,5.6-1.5,6.1-4.4C-40.7,533.7-42.7,531-45.6,530.5z M463.8,364.6
		c-0.3,2.1,2.8,2.6,3.2,0.5S464.1,362.5,463.8,364.6z M227.5-154.1c-2.1-0.3-2.6,2.9-0.5,3.2S229.7-153.8,227.5-154.1z M138.5-44.5
		c-1-0.2-2,0.6-2.2,1.6s0.6,2,1.6,2.2c1,0.2,2-0.6,2.2-1.6C140.3-43.4,139.6-44.4,138.5-44.5z M534-127.4c-0.3,2,2.7,2.5,3,0.5
		C537.4-129,534.4-129.5,534-127.4z M-128.1,604.6c-2.1-0.3-2.6,2.9-0.5,3.2S-126,604.9-128.1,604.6z M353.6,118.6
		c-2-0.3-2.4,2.6-0.5,2.9S355.5,118.9,353.6,118.6z M304.3-26.9c-0.3,1.8,2.5,2.3,2.8,0.4S304.6-28.7,304.3-26.9z M491.6,115.1
		c1.8,0.3,2.3-2.5,0.4-2.8S489.8,114.8,491.6,115.1z M2.8,258.7c-1.5-0.2-3,0.8-3.3,2.4s0.8,3,2.4,3.3s3-0.8,3.3-2.4
		S4.4,258.9,2.8,258.7z M87.9-253.7c-2.2-0.4-2.8,3-0.5,3.4C89.6-250,90.1-253.4,87.9-253.7z M326.2,530.5c-2.5-0.4-3.2,3.5-0.6,3.9
		C328.1,534.8,328.8,530.9,326.2,530.5z M472,172.6c-1.3-0.2-2.5,0.7-2.7,2c-0.2,1.3,0.7,2.5,2,2.7s2.5-0.7,2.7-2
		C474.2,174.1,473.3,172.8,472,172.6z M430.6,151.7c-0.3,2.1,2.8,2.6,3.2,0.5S431,149.6,430.6,151.7z M103.3,545
		c-1.8-0.3-2.3,2.5-0.4,2.8C104.7,548.1,105.1,545.3,103.3,545z M224.8-250.1c-1.8-0.3-2.3,2.5-0.4,2.8
		C226.2-247,226.6-249.8,224.8-250.1z M179.1,275.5c-1.9-0.3-2.4,2.6-0.5,3S181.1,275.9,179.1,275.5z M11.7-247.8
		c-0.3,1.9,2.5,2.3,2.8,0.5S12-249.7,11.7-247.8z M518.5,440.1c-2.1-0.3-2.6,2.9-0.5,3.2S520.6,440.5,518.5,440.1z M254.5,323.1
		c-0.3,1.8,2.5,2.3,2.8,0.4S254.8,321.3,254.5,323.1L254.5,323.1z M202.4,541.8c-1.8-0.3-2.3,2.5-0.4,2.8
		C203.8,544.8,204.3,542.1,202.4,541.8z M527.5,207.5c-0.4,2.4,3.3,3.1,3.7,0.6S527.9,205,527.5,207.5z M139,41.2
		c0.3-1.9-2.5-2.3-2.8-0.5S138.7,43.1,139,41.2z M-37.6,235.9c-0.4,2.4,3.3,3.1,3.7,0.6S-37.2,233.4-37.6,235.9z M396.8,470.6
		c-1.3-0.2-2.5,0.7-2.7,2s0.7,2.5,2,2.7s2.5-0.7,2.7-2C399,472,398.1,470.8,396.8,470.6z M155,623.7c-0.3,2,2.7,2.5,3.1,0.5
		S155.3,621.6,155,623.7z M370.6,141.6c-1.2-0.2-2.3,0.6-2.5,1.8s0.6,2.3,1.8,2.5c1.2,0.2,2.3-0.6,2.5-1.8S371.8,141.8,370.6,141.6
		L370.6,141.6z M235.8,100.9c0.5-2.8-1.5-5.6-4.4-6.1c-2.9-0.5-5.6,1.5-6.1,4.4c-0.5,2.8,1.5,5.6,4.4,6.1
		C232.5,105.7,235.3,103.7,235.8,100.9z M464.6-210.2c-1.5-0.2-3,0.8-3.2,2.3c-0.2,1.5,0.8,3,2.3,3.2s3-0.8,3.2-2.3
		C467.2-208.5,466.1-209.9,464.6-210.2L464.6-210.2z M7.9,283.2c-1.8-0.3-2.3,2.5-0.4,2.8S9.8,283.5,7.9,283.2z M-66.4,12
		c-1.8-0.3-2.3,2.5-0.4,2.8S-64.6,12.3-66.4,12z M455.4-68.7c0.3-1.9-2.5-2.3-2.8-0.5S455.1-66.9,455.4-68.7z M152.2,596
		c-0.6,3.7,5.1,4.7,5.7,0.9S152.8,592.2,152.2,596z M48.3-205.6c0.2-1.5-0.8-3-2.4-3.3c-1.5-0.2-3,0.8-3.3,2.4s0.8,3,2.4,3.3
		S48.1-204.1,48.3-205.6z M286.4,639.8c-1.3-0.2-2.5,0.7-2.7,2c-0.2,1.3,0.7,2.5,2,2.7c1.3,0.2,2.5-0.7,2.7-2
		C288.5,641.2,287.6,640,286.4,639.8z M424.6,393.3c-0.3,1.8,2.5,2.3,2.8,0.4S424.9,391.5,424.6,393.3z M468.3,534
		c0.3-1.8-2.5-2.3-2.8-0.4S468,535.8,468.3,534z M60.4,647.8c-1.2-0.2-2.3,0.6-2.5,1.8s0.6,2.3,1.8,2.5c1.2,0.2,2.3-0.6,2.5-1.8
		C62.4,649.1,61.6,647.9,60.4,647.8L60.4,647.8z M40.6,603.9c-0.3,2.1,2.8,2.6,3.2,0.5S41,601.8,40.6,603.9z M305.4,659.7
		c-2.7-0.4-5.3,1.5-5.8,4.2c-0.4,2.7,1.5,5.3,4.2,5.8c2.7,0.4,5.3-1.5,5.8-4.2C310,662.8,308.1,660.2,305.4,659.7L305.4,659.7z
		 M426.4,516.2c-2.4-0.4-4.8,1.3-5.2,3.7c-0.4,2.4,1.3,4.8,3.7,5.2c2.4,0.4,4.8-1.3,5.2-3.7S428.8,516.6,426.4,516.2z M85.2,480.1
		c-0.3,1.8,2.5,2.3,2.8,0.4S85.5,478.3,85.2,480.1z M166.1-6.3c0.3-1.8-2.5-2.3-2.8-0.4S165.8-4.5,166.1-6.3z M185.6,420.8
		c-1.8-0.3-3.5,1-3.8,2.7s1,3.5,2.7,3.8s3.5-1,3.8-2.7S187.4,421.1,185.6,420.8z M399.8,661.5c-1.8-0.3-2.3,2.5-0.4,2.8
		C401.2,664.6,401.6,661.8,399.8,661.5z M299.8-54.9c-1.6-0.3-3.2,0.9-3.5,2.5s0.9,3.2,2.5,3.5c1.6,0.3,3.2-0.9,3.5-2.5
		C302.6-53,301.4-54.6,299.8-54.9z M235.9,262.8c0.2-1.5-0.8-3-2.3-3.2s-3,0.8-3.2,2.3s0.8,3,2.3,3.2
		C234.2,265.4,235.7,264.3,235.9,262.8L235.9,262.8z M-42.1,505c0.4-2.5-3.3-3-3.7-0.6S-42.5,507.4-42.1,505z M11.4,389.1
		c-0.3,1.8,2.5,2.3,2.8,0.4S11.7,387.3,11.4,389.1z M180.2,106.2c-0.3,1.8,2.5,2.3,2.8,0.4S180.5,104.4,180.2,106.2z M-63.8,132.6
		c-1.9-0.3-2.4,2.6-0.5,2.9C-62.4,135.9-61.9,132.9-63.8,132.6z M346.9-121.8c-1.5-0.2-3,0.8-3.3,2.4s0.8,3,2.4,3.3s3-0.8,3.3-2.4
		S348.4-121.6,346.9-121.8z M126.4,176.9c-1.3-0.2-2.5,0.7-2.7,2s0.7,2.5,2,2.7c1.3,0.2,2.5-0.7,2.7-2S127.7,177.1,126.4,176.9z
		 M73.6-150.9c-0.3,1.9,2.5,2.3,2.8,0.5S73.9-152.8,73.6-150.9z M337.4-183.7c2,0.3,2.4-2.6,0.5-2.9
		C335.9-187,335.4-184,337.4-183.7z M102.6,323.3c-1.4-0.2-2.8,0.8-3,2.2c-0.2,1.4,0.8,2.8,2.2,3s2.8-0.8,3-2.2
		S104,323.5,102.6,323.3L102.6,323.3z M430.7-121.1c1.2,0.2,2.3-0.6,2.5-1.8c0.2-1.2-0.6-2.3-1.8-2.5s-2.3,0.6-2.5,1.8
		S429.5-121.3,430.7-121.1L430.7-121.1z M454.7,280.1c0.3-1.9-2.5-2.3-2.8-0.5S454.4,282,454.7,280.1z M-32.9,384
		c-1.5-0.2-3,0.8-3.2,2.3s0.8,3,2.3,3.2s3-0.8,3.2-2.3C-30.4,385.8-31.4,384.3-32.9,384L-32.9,384z M86.5-75.6
		c-1.5-0.2-3,0.8-3.3,2.4s0.8,3,2.4,3.3s3-0.8,3.3-2.4S88-75.3,86.5-75.6z M-67.2,517.6c-1.5-0.2-3,0.8-3.2,2.3
		c-0.2,1.5,0.8,3,2.3,3.2s3-0.8,3.2-2.3C-64.6,519.3-65.6,517.8-67.2,517.6z M452.9,637.8c-2.5-0.4-3.2,3.5-0.6,3.9
		S455.5,638.2,452.9,637.8z M-37.2-145.7c-1.8-0.3-2.3,2.5-0.4,2.8S-35.3-145.4-37.2-145.7z M143.4,195.6c-0.3,1.8,2.5,2.3,2.8,0.4
		C146.5,194.2,143.7,193.8,143.4,195.6z M251.1,118.7c-1.4-0.2-2.8,0.8-3,2.2s0.8,2.8,2.2,3s2.8-0.8,3-2.2
		C253.5,120.3,252.5,119,251.1,118.7z M46.3-4.9C46-3,48.8-2.6,49.1-4.4S46.6-6.7,46.3-4.9z M358,34.7c-2.1-0.3-4.2,1.2-4.5,3.3
		s1.1,4.2,3.3,4.5s4.2-1.2,4.5-3.3S360.1,35,358,34.7z M241.1,83.6c1.8,0.3,2.3-2.5,0.4-2.8C239.8,80.5,239.3,83.3,241.1,83.6z
		 M462.3-113.4c-2.9-0.5-5.6,1.5-6.1,4.4c-0.5,2.8,1.5,5.6,4.4,6.1c2.9,0.5,5.6-1.5,6.1-4.4C467.1-110.2,465.1-112.9,462.3-113.4z
		 M241.4-63.2c-1.8-0.3-2.3,2.5-0.4,2.8S243.2-62.9,241.4-63.2z M463.7,46.8c0.3-1.8-2.5-2.3-2.8-0.4S463.4,48.6,463.7,46.8z
		 M395.8,243.4c-0.3,1.8,2.5,2.3,2.8,0.4S396,241.6,395.8,243.4z M-131,437.3c-1.8-0.3-2.3,2.5-0.4,2.8
		C-129.6,440.3-129.2,437.6-131,437.3z M569.4-37.4c-0.5,3,4,3.7,4.5,0.7C574.3-39.6,569.9-40.4,569.4-37.4z M340.3,343.4
		c-0.6,3.6,4.9,4.5,5.5,0.9S340.9,339.8,340.3,343.4z M294.6,597.7c-2-0.3-2.4,2.6-0.5,3C296.1,601,296.6,598,294.6,597.7z
		 M-26.4-93.1c0.4-2.7-1.5-5.3-4.2-5.8c-2.7-0.4-5.3,1.5-5.8,4.2s1.5,5.3,4.2,5.8S-26.8-90.4-26.4-93.1L-26.4-93.1z M400.5,270.6
		c-3-0.5-3.8,4.1-0.7,4.6C402.7,275.6,403.5,271.1,400.5,270.6z M324.8,327c-2.6-0.4-5,1.4-5.5,4c-0.4,2.6,1.4,5,4,5.5
		c2.6,0.4,5-1.4,5.5-4C329.2,329.9,327.4,327.5,324.8,327z M116.3-91.5c-2.2-0.4-4.4,1.2-4.7,3.4c-0.4,2.2,1.2,4.4,3.4,4.7
		c2.2,0.4,4.4-1.2,4.7-3.4S118.5-91.1,116.3-91.5z M24.2-196.5c-0.3,2,2.7,2.5,3,0.5C27.6-198.1,24.5-198.5,24.2-196.5z
		 M-94.7,481.1c-0.4,2.3,3.2,2.9,3.6,0.6S-94.3,478.8-94.7,481.1z M90.8-109.3c0.3-1.8-2.5-2.3-2.8-0.4S90.5-107.4,90.8-109.3z
		 M-5.4-67.7c0.3-1.8-2.5-2.3-2.8-0.4S-5.7-65.8-5.4-67.7z M299.3,358.9c-1.8-0.3-2.3,2.5-0.4,2.8S301.1,359.2,299.3,358.9z
		 M288.7,183.3c-0.7,4.1,5.6,5.1,6.3,1S289.3,179.2,288.7,183.3z M47,113.4c-2.4-0.4-3,3.3-0.6,3.7C48.8,117.5,49.4,113.8,47,113.4z
		 M599.2-87.1c-0.3,1.8,2.5,2.3,2.8,0.4C602.3-88.5,599.5-88.9,599.2-87.1z M411.1,535.1c-0.3,1.8,2.5,2.3,2.8,0.4
		S411.4,533.3,411.1,535.1z M-95.8,279.1c-1-0.2-2,0.6-2.2,1.6s0.6,2,1.6,2.2c1,0.2,2-0.6,2.2-1.6S-94.8,279.2-95.8,279.1z
		 M430,618.6c-2.1-0.3-2.6,2.9-0.5,3.2S432.2,619,430,618.6z M-2.7,36.5c0.3-1.8-2.5-2.3-2.8-0.4S-3,38.4-2.7,36.5z M207.2,439.8
		c-1.8-0.3-2.3,2.5-0.4,2.8C208.6,442.9,209,440.1,207.2,439.8z M65.5,497.6c-1.4-0.2-2.8,0.8-3,2.2c-0.2,1.4,0.8,2.8,2.2,3
		s2.8-0.8,3-2.2S66.9,497.8,65.5,497.6L65.5,497.6z"/>
</g>
</svg>
