<?xml version="1.0" encoding="utf-8"?>
<!-- Generator: Adobe Illustrator 28.0.0, SVG Export Plug-In . SVG Version: 6.00 Build 0)  -->
<svg version="1.1" id="Layer_2_00000111911264447728239840000017689518084128793221_"
	 xmlns="http://www.w3.org/2000/svg" xmlns:xlink="http://www.w3.org/1999/xlink" x="0px" y="0px" viewBox="0 0 190 64"
	 style="enable-background:new 0 0 190 64;" xml:space="preserve">
<style type="text/css">
	.st0{fill:url(#SVGID_1_);}
	.st1{fill:#FFFFFF;}
	.st2{fill:#ED1E79;}
</style>
<g id="Layer_1-2">
	
		<linearGradient id="SVGID_1_" gradientUnits="userSpaceOnUse" x1="258.5833" y1="52" x2="-131.272" y2="52" gradientTransform="matrix(1 0 0 -1 0 84)">
		<stop  offset="0" style="stop-color:#F06597"/>
		<stop  offset="0.5" style="stop-color:#E41683"/>
		<stop  offset="1" style="stop-color:#712776"/>
	</linearGradient>
	<path class="st0" d="M31.9,0h126.2C175.7,0,190,14.3,190,32l0,0c0,17.7-14.3,32-31.9,32H31.9C14.3,64,0,49.7,0,32l0,0
		C0,14.3,14.3,0,31.9,0z"/>
	<path class="st1" d="M40,38.2c0-0.9-0.3-1.6-0.9-2c-0.6-0.5-1.7-1-3.4-1.5c-1.6-0.5-2.9-1-3.9-1.6c-2.6-1.4-3.9-3.3-3.9-5.6
		c0-1.2,0.3-2.3,1-3.3s1.7-1.7,3-2.3c1.3-0.5,2.7-0.8,4.4-0.8s3.1,0.3,4.3,0.9c1.3,0.6,2.3,1.4,3,2.5c0.7,1.1,1.1,2.3,1.1,3.7H40
		c0-1-0.3-1.9-1-2.4c-0.7-0.6-1.6-0.9-2.8-0.9c-1.2,0-2,0.2-2.7,0.7c-0.6,0.5-0.9,1.1-0.9,1.9c0,0.7,0.4,1.4,1.1,1.9
		c0.7,0.5,1.8,1,3.3,1.4c2.7,0.8,4.6,1.8,5.8,3c1.2,1.2,1.8,2.7,1.8,4.4c0,2-0.7,3.5-2.2,4.6c-1.5,1.1-3.5,1.7-6,1.7
		c-1.7,0-3.3-0.3-4.8-1c-1.4-0.6-2.5-1.5-3.3-2.6c-0.8-1.1-1.1-2.4-1.1-3.9h4.7c0,2.5,1.5,3.8,4.5,3.8c1.1,0,2-0.2,2.6-0.7
		C39.7,39.6,40,39,40,38.2L40,38.2z"/>
	<path class="st1" d="M52.7,29c1.2-1.4,2.7-2.2,4.5-2.2c3.7,0,5.5,2.1,5.6,6.4v10.8h-4.5V33.4c0-1-0.2-1.7-0.6-2.2
		c-0.4-0.5-1.1-0.7-2.1-0.7c-1.3,0-2.3,0.5-2.9,1.5v12h-4.5v-24h4.5V29L52.7,29z"/>
	<path class="st1" d="M76.8,44.1c-0.2-0.4-0.4-0.9-0.5-1.5c-1.1,1.2-2.5,1.8-4.3,1.8c-1.7,0-3-0.5-4.1-1.4c-1.1-1-1.6-2.2-1.6-3.6
		c0-1.8,0.7-3.2,2-4.1s3.2-1.4,5.7-1.5h2.1v-1c0-0.8-0.2-1.4-0.6-1.9c-0.4-0.5-1-0.7-1.9-0.7c-0.8,0-1.4,0.2-1.8,0.5
		c-0.4,0.4-0.6,0.9-0.6,1.5h-4.5c0-1,0.3-1.9,0.9-2.7c0.6-0.8,1.5-1.5,2.6-2c1.1-0.5,2.3-0.7,3.7-0.7c2.1,0,3.7,0.5,5,1.6
		c1.2,1.1,1.8,2.5,1.8,4.4v7.3c0,1.6,0.2,2.8,0.7,3.6v0.3L76.8,44.1L76.8,44.1z M73.1,41c0.7,0,1.3-0.1,1.8-0.4s1-0.7,1.3-1.2v-2.9
		h-1.7c-2.3,0-3.5,0.8-3.6,2.3l0,0.3c0,0.6,0.2,1,0.6,1.4C71.8,40.8,72.4,41,73.1,41L73.1,41z"/>
	<path class="st1" d="M94.4,31.4c-0.6-0.1-1.2-0.1-1.6-0.1c-1.7,0-2.8,0.6-3.4,1.7v11.1h-4.5V27.2h4.3l0.1,2
		c0.9-1.6,2.2-2.3,3.8-2.3c0.5,0,1,0.1,1.4,0.2L94.4,31.4L94.4,31.4z"/>
	<path class="st1" d="M105.2,44.4c-2.5,0-4.5-0.8-6-2.3c-1.6-1.5-2.3-3.6-2.3-6.1v-0.4c0-1.7,0.3-3.2,1-4.6c0.7-1.3,1.6-2.4,2.8-3.1
		c1.2-0.7,2.6-1.1,4.1-1.1c2.3,0,4.1,0.7,5.5,2.2c1.3,1.5,2,3.5,2,6.2v1.8h-10.7c0.1,1.1,0.6,2,1.3,2.7s1.7,1,2.8,1
		c1.7,0,3.1-0.6,4.1-1.9l2.2,2.5c-0.7,1-1.6,1.7-2.7,2.2C107.9,44.2,106.6,44.5,105.2,44.4L105.2,44.4z M104.7,30.5
		c-0.9,0-1.6,0.3-2.2,0.9c-0.6,0.6-0.9,1.5-1.1,2.6h6.3v-0.4c0-1-0.3-1.8-0.8-2.3C106.4,30.8,105.6,30.5,104.7,30.5L104.7,30.5z"/>
	<ellipse class="st1" cx="152" cy="32" rx="21.7" ry="21.8"/>
	<g id="Lfxs2f">
		<path class="st2" d="M146.3,32c-0.2,0.5,0.1,0.7,0.5,1c3.1,1.7,6.1,3.3,9.1,5c0.4,0.2,0.7,0.2,1-0.1c1.6-1.1,3.6-0.9,4.9,0.4
			c1.4,1.3,1.7,3.3,0.8,5c-0.9,1.6-2.7,2.4-4.6,2c-1.8-0.4-3.1-2.1-3-3.9c0-0.5-0.1-0.8-0.6-1c-3-1.6-6.1-3.3-9.1-5
			c-0.4-0.2-0.7-0.2-1.1,0.1c-1.7,1.1-3.9,0.8-5.2-0.7c-1.3-1.5-1.3-3.8,0-5.3c1.3-1.5,3.6-1.9,5.2-0.8c0.4,0.3,0.7,0.3,1.2,0.1
			c3-1.7,6-3.3,9.1-5c0.4-0.2,0.6-0.4,0.5-0.9c-0.1-1.9,1.2-3.6,3-4c1.8-0.5,3.7,0.3,4.6,2c0.9,1.7,0.6,3.7-0.8,5
			c-1.4,1.3-3.4,1.4-5,0.4c-0.4-0.3-0.7-0.2-1,0c-3,1.7-6,3.3-9,4.9C146.5,31.2,146.1,31.4,146.3,32L146.3,32z"/>
	</g>
</g>
</svg>
