  <svg
      width="210mm"
      height="297mm"
      version="1.1"
      viewBox="0 0 210 297"
      xmlns="http://www.w3.org/2000/svg"
      xmlns-xlink="http://www.w3.org/1999/xlink"
    >
      <g>
        <image
          x="-778.7"
          y="-41.84"
          width="381.4"
          height="677.7"
          preserveAspectRatio="none"
          xlink-href='/RC_stage1.png'
        />
        <path
          d="m-636.5 497.7c-9.584-15.87-28.6-21.92-44.03-30.6-2.045-1.15-3.925-2.581-5.97-3.731-1.939-1.091-4.119-1.751-5.97-2.985-1.171-0.7806-1.926-2.058-2.985-2.985-3.105-2.717-3.846-2.411-7.462-5.224-0.833-0.6479-1.38-1.625-2.239-2.239-2.703-1.93-5.608-2.995-8.209-5.224-2.248-1.927-8.355-6.263-9.701-8.955-0.3337-0.6674 0.3337-1.571 0-2.239-0.8428-1.686-3.408-3.63-2.239-5.97 0.1113-0.2225 0.5703 0.1759 0.7462 0 0.3518-0.3518-0.2225-1.047 0-1.492 1.553-3.106-0.0515 0.7977 1.492-0.7462 0.1759-0.1759-0.1759-0.5703 0-0.7462 1.032-1.032 4.322-1.337 5.224-2.239 0.1759-0.1759-0.1759-0.5703 0-0.7462 0.1759-0.1759 0.7462 0.2487 0.7462 0 0-0.5562-0.995 0.4975-1.492 0.7462-4.507 2.254-0.3159-0.1076-3.731 0.7462-1.289 0.3222-2.468 1.071-3.731 1.492-0.8955 0.2985-2.089-0.2985-2.985 0-0.8778 0.2926-7.29 2.411-8.209 1.492-2.277-2.277-2.964-5.949-5.224-8.209-1.346-1.346-5.97-4.55-5.97-6.716 0-1.273-0.5527-4.118 0-5.224 0.3146-0.6293 1.13-0.8892 1.492-1.492 0.4047-0.6745 0.3099-1.584 0.7462-2.239 2.777-4.165 11.36-11.36 14.92-14.92 2.838-2.838 4.638-6.876 7.462-9.701 0.3933-0.3933 1.099-0.3529 1.492-0.7462 0.3933-0.3933 0.3529-1.099 0.7462-1.492 0.3933-0.3933 1.03-0.4377 1.492-0.7462 0.8594-0.5729 1.412-1.618 2.239-2.239 2.956-2.217 7.408-2.996 11.19-2.239 2.329 0.4658 3.429 2.535 5.224 3.731 0.6545 0.4363 1.584 0.3099 2.239 0.7462 0.207 0.138 0 0.4975 0 0.7462 0.2487 0.2487 0.4316 0.5889 0.7462 0.7462 0.445 0.2225 1.079-0.276 1.492 0 0.1964 0.131 2.8 2.429 2.985 2.985 0.593 1.779-1.184 5.532-0.7462 5.97 0.5605 0.5605 7.548 2.704 8.955 2.985 1.663 0.3327 3.58-0.4108 5.224 0 1.022 0.2555 2.134 1.28 2.985 1.492 1.74 0.435 6.047-0.6691 7.462 0.7462 0.1759 0.1759-0.1759 0.5704 0 0.7462 0.3518 0.3518 1.141-0.3518 1.492 0 0.1759 0.1759-0.1112 0.5238 0 0.7462 0.8811 1.762 2.829 3.418 3.731 5.224 0.2225 0.445-0.2225 1.048 0 1.492 0.2487 0.4975 1.244 0.2488 1.492 0.7463 0.6822 1.364 0.0898 1.672 0.7462 2.985 1.553 3.106-0.0515-0.7978 1.492 0.7462 0.3933 0.3933 0.3529 1.099 0.7462 1.492 0.1759 0.1759 0.6082-0.207 0.7462 0 0.4363 0.6545 0.19 1.682 0.7462 2.239 0.3518 0.3518 1.02-0.1573 1.492 0 1.407 0.4688 2.444 2.341 3.731 2.985 0.7036 0.3518 1.609 0.2743 2.239 0.7462 0.445 0.3337 0.2834 1.184 0.7462 1.492 0.4139 0.276 1.066-0.256 1.492 0 0.905 0.543 1.334 1.696 2.239 2.239 0.4266 0.256 1.021-0.1573 1.492 0 0.8508 0.2836 1.605 0.8583 2.239 1.492 0.1759 0.1759-0.207 0.6082 0 0.7462 2.293 1.528 1.788 0.8448 3.731 1.492 1.111 0.3704 2.679 3.425 2.985 3.731 0.1759 0.1759 0.5703-0.1759 0.7462 0 0.5277 0.5277-0.3337 1.571 0 2.239 0.2366 0.4733 1.019-0.2004 1.492 0.7462 0.2985 0.597-0.2985 1.642 0 2.239 1.006 2.012 1.207 4.654 2.239 6.716 0.2225 0.445-0.3518 1.141 0 1.492 1.544 1.544-0.0603-2.359 1.492 0.7462 0.1112 0.2225-0.1759 0.5703 0 0.7462 0.1759 0.1759 0.5703-0.1759 0.7462 0 0.1759 0.1759-0.1759 0.5703 0 0.7462 0.4892 0.4892 2.611 0.3724 2.985 0.7462 0.1619 0.1619 0.6007 1.42 0.7462 1.492 0.445 0.2225 1.047-0.2225 1.492 0 0.2225 0.1113-0.1759 0.5703 0 0.7462 0.3518 0.3518 1.047-0.2225 1.492 0 1.896 0.9479-0.7642 0.8919 2.239 1.492 1.462 0.2925 8.34 0.4538 9.701 0 3.02-1.007 2.689-3.133 5.97-1.492 0.2225 0.1113 0.5703-0.1759 0.7462 0 0.9204 0.9204-0.6716 1.418-0.7462 1.492-0.1759 0.1759 0.1112 0.5238 0 0.7462-0.3398 0.6797-2.584 2.717-2.985 2.985-0.6764 0.4509-1.706 0.4263-2.239 1.492-0.2225 0.445 0.2225 1.048 0 1.492-1.398 2.796-3.365 10.8-2.239 14.18 0.4688 1.407 2.341 2.444 2.985 3.731 0.2225 0.445-0.1573 1.02 0 1.492 1.885 5.655-0.2694-0.2695 1.492 1.492 0.3518 0.3518-0.2225 1.047 0 1.492 1.058 2.116 3.572 2.079 3.731 2.239 1.762 1.762-4.162-0.3924 1.492 1.492 1.347 0.449 7.065 0.572 8.209 0 1.685-0.8425 2.857-2.921 4.477-3.731 4.308-2.154 15.07-6.573 19.4-2.239 0.8809 0.8809 2.188 1.442 2.985 2.239 1.544 1.544-2.359-0.0604 0.7462 1.492 0.8162 0.4081 2.215 0.7223 2.985 1.492 0.254 0.254 0.1856 4.106 0 4.477-1.279 2.558-6.565 2.935-8.955 3.731-1.543 0.5142-3.69 0.235-5.224 0.7462-0.3337 0.1112-0.4975 0.4975-0.7462 0.7462-0.7462 0.2487-1.467 0.592-2.239 0.7462-1.174 0.2348-2.57-0.2902-3.731 0-1.528 0.382-2.88 1.093-4.477 1.492-1.841 0.4603-4.212 0.1603-5.97 0.7462-1.263 0.4211-2.442 1.17-3.731 1.492-0.9652 0.2413-2.041-0.3146-2.985 0-0.3337 0.1112-0.4049 0.6609-0.7462 0.7462-0.724 0.181-1.507-0.1463-2.239 0-3.606 0.7212-7.093 1.867-10.45 2.985-1.791 0.597-4.179-0.597-5.97 0-0.773 0.2577-1.498 1.122-2.239 1.492-0.4506 0.2253-1.894-0.345-2.239 0-0.1759 0.1759 0.1759 0.5703 0 0.7462-0.1759 0.1759-0.5237-0.1112-0.7462 0-3.187 1.594 1.695-0.1013-1.492 1.492-0.445 0.2225-1.02-0.1573-1.492 0-2.693 0.8976-3.489 1.593-6.716 2.239z"
          style='fill:none;stroke:#000;stroke-width:0.2646px;'
        />
        <path
          d="m-734.3 270.1c1.244-0.8706 2.373-1.933 3.731-2.612 0.445-0.2225 1.005 0.0976 1.492 0 0.7713-0.1543 1.52-0.4268 2.239-0.7462 1.277-0.5677 0.7638-0.7521 1.866-1.119 2.119-0.7062 3.994-1.426 5.97-2.612 0.833-0.4998 1.448-1.301 2.239-1.866 1.234-0.8814 2.571-1.683 3.731-2.612 0.4648-0.3718 1.609-1.924 2.239-2.239 0.2225-0.1112 0.4975 0 0.7462 0 0.2488-0.1244 0.5149-0.2188 0.7462-0.3731 0.5022-0.3348 2.365-1.929 2.985-2.239 0.4587-0.2293 1.034-0.1438 1.492-0.3731 0.3146-0.1573 0.4648-0.5352 0.7463-0.7462 0.9818-0.7363 2.433-1.095 3.358-1.866 0.3445-0.2871 0.4291-0.8023 0.7462-1.119 0.5744-0.5744 1.664-0.9181 2.239-1.492 0.1966-0.1966 0.1417-0.592 0.3731-0.7462 0.207-0.138 0.5238 0.1112 0.7462 0 0.935-0.4675 1.734-1.653 2.612-2.239 0.1035-0.069 0.2487 0 0.3731 0 0.2487-0.1244 0.5496-0.1765 0.7462-0.3731 0.1966-0.1966 0.1417-0.592 0.3731-0.7462 0.207-0.138 0.5238 0.1112 0.7462 0 1.699-1.699-0.1546-0.1972 1.492-0.7462 0.3337-0.1112 0.4316-0.5889 0.7462-0.7462 0.5108-0.2554 3.181-1.257 3.731-1.119 2.301 0.5752 4.392 5.757 5.224 7.835 0.3697 0.9242 0.3464 2.585 1.119 3.358 0.1966 0.1966 0.592 0.1417 0.7462 0.3731 0.138 0.207-0.1112 0.5238 0 0.7462 0.0556 0.1112 0.2852-0.0879 0.3731 0 1.456 1.456-0.0864 0.2004 0.3731 1.119 0.5821 1.164 2.195 1.932 2.985 2.985 0.4285 0.5713 0.6908 1.294 1.119 1.866 1.2 1.601 2.899 2.871 4.104 4.477 0.7838 1.045 0.9467 2.812 1.866 3.731 0.3171 0.3171 0.8323 0.4017 1.119 0.7462 0.6693 0.5568 0.5982 1.587 1.119 2.239 3.627 3.627-0.3348-0.5708 1.492 1.866 2.428 3.237 5.486 6.039 7.835 9.328 1.548 2.168 3.083 4.451 4.477 6.716 0.5256 0.854 0.8769 1.82 1.492 2.612 0.2753 0.354 0.8706 0.3731 1.119 0.7462 0.2845 0.4267 0.1438 1.034 0.3731 1.492 1.081 2.162 1.48 1.101 2.985 3.358 0.2844 0.4267 0.1827 1.016 0.3731 1.492 0.4902 1.225 1.875 3.072 2.612 4.104 1.157 1.62 0.4319-0.2555 1.492 1.866 0.4447 0.8893 1.227 2.464 1.866 3.358 0.6588 0.9224 1.276 1.355 1.866 2.239 0.1542 0.2314 0.2487 0.4975 0.3731 0.7462 0.2487 0.4975 0.4377 1.03 0.7462 1.492 0.2927 0.439 0.9525 0.6188 1.119 1.119 0.0787 0.236-0.098 0.5176 0 0.7462 0.395 0.9216 0.7834 1.903 1.492 2.612 0.1966 0.1967 0.592 0.1417 0.7462 0.3731 0.138 0.207-0.0603 0.5049 0 0.7462 0.1672 0.6689 1.452 2.738 1.866 3.358 0.4597 0.6896 0.2865 0.0566 0.7462 0.7462 0.4985 0.7477 0.6777 1.949 1.119 2.612 0.6625 0.9939 1.361 1.976 1.866 2.985 0.2378 0.4756 0.9549 0.9993 1.119 1.492 0.0787 0.236-0.1113 0.5238 0 0.7462 0.0556 0.1112 0.2852-0.0879 0.3731 0 0.442 0.442 0.7418 1.362 1.119 1.866 0.7149 0.9532 1.703 1.913 2.239 2.985 0.0556 0.1112 0 0.2488 0 0.3731 0.1244 0.2488 0.2062 0.5238 0.3731 0.7462 0.2111 0.2814 0.5889 0.4316 0.7462 0.7462 0.1112 0.2225-0.1113 0.5238 0 0.7463 0.7434 1.487 0.7466 3e-3 1.119 1.492 0.0603 0.2413-0.1113 0.5238 0 0.7462 0.236 0.4719 0.9234 0.6294 1.119 1.119 0.1904 0.4761 0.1438 1.034 0.3731 1.492 0.7192 0.7192 0.7657 0.6084 1.119 1.492 0.4499 1.125 2.188 5.173 2.985 5.97 0.1966 0.1966 0.6218 0.1244 0.7462 0.3731 0.1669 0.3337-0.1669 0.7856 0 1.119 0.1244 0.2487 0.5496 0.1764 0.7462 0.3731 0.6816 0.6815 0.9179 1.846 1.492 2.612 0.4221 0.5628 1.07 0.9296 1.492 1.492 0.664 0.8854 1.096 2.215 1.866 2.985 0.3171 0.3171 0.8392 0.396 1.119 0.7462 0.2457 0.3071 0.1708 0.7821 0.3731 1.119 0.362 0.6033 1.053 0.9431 1.492 1.492 3.523 4.403-1.639-1.899 1.119 2.239 2.646 3.97-0.4788-2.144 2.239 2.612 1.135 1.986-0.552 0.2887 1.119 2.239 0.4579 0.5342 1.143 0.8816 1.492 1.492 0.1851 0.324-0.207 0.8089 0 1.119 0.5854 0.8781 1.653 1.361 2.239 2.239 0.4363 0.6545 0.356 1.556 0.7462 2.239 0.138 0.2415 0.5725 0.156 0.7462 0.3731 0.7601 0.9501 1.093 2.393 1.866 3.358 0.3296 0.412 0.8267 0.6803 1.119 1.119 0.2182 0.3272 0.1708 0.7821 0.3731 1.119 0.5043 0.8405 3.197 4.316 3.731 4.85 0.0879 0.0879 0.2852-0.0879 0.3731 0 0.5615 0.5615 0.788 1.576 1.119 2.239 0.3816 0.7631 0.5134-0.0111 1.119 0.7462 0.3475 0.4343 0.4601 1.016 0.7462 1.492 0.2715 0.4525 0.8267 0.6803 1.119 1.119 0.2369 0.3553 0.4975 1.161 0.7462 1.492 0.3166 0.4222 0.8028 0.6972 1.119 1.119 0.1492 0.199-0.1759 0.5704 0 0.7462 0.1967 0.1967 0.5496 0.1765 0.7462 0.3731 0.2612 0.2612 0.554 1.481 0.7462 1.866 0.2098 0.4196 0.972 0.6774 1.119 1.119 0.4747 1.424-0.9938 0.1255 0.7462 1.866 0.1966 0.1966 0.5496 0.1764 0.7462 0.3731 0.2394 0.2393 1.601 3.334 1.866 3.731 0.069 0.1035 0.3175-0.1112 0.3731 0 0.1112 0.2225-0.0604 0.5049 0 0.7462 0.3 1.2 1.819 4.197 1.119 5.597-0.1573 0.3146-0.635 0.4125-0.7462 0.7462-0.118 0.354 0.118 0.7654 0 1.119-0.0759 0.2277-0.6704 0.8916-0.7462 1.119-0.0787 0.236 0.1112 0.5237 0 0.7462-0.0556 0.1112-0.2852-0.088-0.3731 0-0.3626 0.3626-0.0654 1.082-0.3731 1.492-0.1669 0.2225-0.5496 0.1764-0.7462 0.3731-1.033 1.033-1.553 2.672-2.612 3.731-0.2488 0.2487-0.635 0.4125-0.7462 0.7462-0.1459 0.4376 0.0793 2.838 0.3731 2.985 0.445 0.2225 1.02-0.1573 1.492 0 0.1668 0.0556 0.1986 0.3513 0.3731 0.3731 3.566 0.4458 8.587 0.2218 11.94-1.119 0.4468-0.1787 1.679-1.306 2.239-0.7462 0.4365 0.4365 0.4716 1.69 0.7462 2.239 1.301 2.601 2.428 5.419 3.358 8.209 0.118 0.354-0.0905 0.7574 0 1.119 0.1888 0.755 0.9173 0.8862 1.119 1.492 0.118 0.354-0.1669 0.7856 0 1.119 0.3698 0.7397 1.657 1.448 1.866 1.866 0.2006 0.4012 0.7138 1.087 1.119 1.492 0.0879 0.0879 0.2852-0.088 0.3731 0 0.088 0.0879-0.0879 0.2852 0 0.3731 0.088 0.0879 0.3175-0.1112 0.3731 0 0.1112 0.2225-0.1759 0.5703 0 0.7462 0.1759 0.1759 0.5703-0.1759 0.7462 0 0.1759 0.1759-0.1112 0.5238 0 0.7462 0.5259 1.052 1.431 1.309 1.866 2.612 0.1237 0.3713-0.5046 2.623-0.7462 2.985-0.069 0.1035-0.2525-0.0302-0.3731 0-0.3816 0.0954-0.7676 0.1972-1.119 0.3731-0.1573 0.0787-0.2487 0.2488-0.3731 0.3731-1.119 0.6219-2.181 1.361-3.358 1.866-0.5829 0.2498-1.268 0.1598-1.866 0.3731-1.154 0.412-2.207 1.074-3.358 1.492-0.2338 0.085-0.5141-0.0893-0.7462 0-1.922 0.7391-3.644 1.961-5.597 2.612-0.6016 0.2006-1.286 0.1156-1.866 0.3731-1.137 0.5052-1.95 1.549-2.985 2.239-0.5174 0.345-0.9592 0.7994-1.492 1.119-0.3373 0.2024-0.7921 0.155-1.119 0.3731-0.5963 0.3975-1.593 1.381-2.239 1.866-0.9246 0.6934-1.169 1.542-1.866 2.239-0.2781 0.2781-0.8412 0.095-1.119 0.3731-0.2873 0.2873-0.4974 1.285-1.119 1.492-0.236 0.0787-0.5102-0.0787-0.7462 0-0.6003 0.2001-0.5913 1.14-1.119 1.492-0.7339 0.4892-2.005 0.8855-2.612 1.492-0.1966 0.1966-0.1764 0.5496-0.3731 0.7462-0.1966 0.1966-0.5148 0.2188-0.7462 0.3731-1.005 0.67-1.895 1.694-2.985 2.239-1.762 0.8812-6.224 1.187-8.209 0.7462-0.6538-0.1453-1.23-0.5344-1.866-0.7462-0.859-0.2863-1.835-0.2804-2.612-0.7462-0.5332-0.32-0.7309-1.007-1.119-1.492-0.6433-1.437-2.026-2.208-2.985-3.358-1.111-1.333-1.529-3.178-2.612-4.477-0.1592-0.1911-0.5393 0.138-0.7462 0-0.2314-0.1543-0.1765-0.5496-0.3731-0.7462-0.0879-0.088-0.3175 0.1112-0.3731 0-0.2781-0.5562 0.0879-1.25 0-1.866-0.4155-2.908-0.4104 0-0.7462-3.358-0.3774-3.774 0.6566-5.701 1.866-9.328 0.0759-0.2277 0.6703-0.8916 0.7462-1.119 0.0787-0.236-0.0924-0.5153 0-0.7462 0.4721-1.18 1.67-1.848 2.239-2.985 0.1669-0.3337-0.118-0.7654 0-1.119 0.0556-0.1668 0.3175-0.2062 0.3731-0.3731 0.3639-1.092-0.1145-2.143-0.7462-2.985-0.5584-0.7445-2.552-0.7462-3.358-0.7462-1.87 0-3.247-0.0836-4.85 1.119-0.2814 0.2111-0.4446 0.5652-0.7462 0.7462-0.3373 0.2024-0.7821 0.1708-1.119 0.3731-0.8798 0.5279-2.745 2.579-4.104 2.239-1.98-0.4951-5.683-6.492-6.343-8.209-0.4236-1.101-0.6464-2.277-1.119-3.358-0.4019-0.9187-1.044-1.715-1.492-2.612-1.63-4.889 0.9293 2.232-1.119-1.866-0.2293-0.4586-0.1711-1.021-0.3731-1.492-0.3533-0.8243-1.139-1.414-1.492-2.239-0.202-0.4713-0.1711-1.021-0.3731-1.492-0.3533-0.8243-1.031-1.47-1.492-2.239-0.8041-1.34-1.404-2.768-2.239-4.104-0.7464-1.194-1.948-2.625-2.612-3.731-0.2023-0.3373-0.1549-0.7921-0.3731-1.119-0.7956-1.193-2.086-2.234-2.985-3.358-0.7216-0.9021-1.15-2.09-1.866-2.985-0.4395-0.5494-1.27-0.825-1.492-1.492-0.0787-0.236 0.1113-0.5238 0-0.7462-0.4694-0.9388-1.695-1.706-2.239-2.612-0.2024-0.3372-0.1371-0.8047-0.3731-1.119-0.1668-0.2225-0.5682-0.1595-0.7462-0.3731-0.4643-0.5571-0.6842-1.285-1.119-1.866-0.962-1.283-2.512-2.377-3.358-3.731-0.355-0.568-0.4975-1.244-0.7462-1.866-0.3731-0.6218-0.7171-1.262-1.119-1.866-1.119-1.617-2.239-3.234-3.358-4.85-0.4975-0.4975-1.061-0.9371-1.492-1.492-1.115-1.434-2.009-3.317-2.985-4.85-0.9082-1.427-2.115-2.654-2.985-4.104-0.9637-1.606-1.4-3.336-2.612-4.85-0.5494-0.6867-1.316-1.179-1.866-1.866-1.274-1.592-2.149-3.612-3.358-5.224-0.7932-1.058-1.765-1.969-2.612-2.985-1.274-1.529-2.177-3.276-3.358-4.85-1.155-1.54-2.504-3.004-3.731-4.477-1.286-1.543-2.312-3.431-3.731-4.85-0.0879-0.088-0.2935 0.0955-0.3731 0-0.5742-0.689-0.9544-1.521-1.492-2.239-0.7658-1.021-1.907-1.927-2.612-2.985-0.3085-0.4628-0.423-1.04-0.7462-1.492-2.158-3.021-0.1251 1.242-2.239-2.985-1.282-2.565 1.272 0.5634-1.866-3.358-0.4395-0.5494-1.089-0.9161-1.492-1.492-0.8937-1.277-1.374-2.808-2.239-4.104-0.232-1.075-1.301-1.448-1.866-2.239-1.809-2.533-3.106-5.465-4.477-8.209-0.3243-0.6486-0.6978-1.275-1.119-1.866-0.2044-0.2862-0.6156-0.4196-0.7462-0.7462-0.1386-0.3464 0.1386-0.7729 0-1.119-0.2246-0.5615-1.943-2.393-2.239-2.985-0.1112-0.2225 0.0787-0.5102 0-0.7462-0.0556-0.1669-0.2945-0.2158-0.3731-0.3731-0.3518-0.7036-0.4364-1.516-0.7462-2.239-0.4099-0.9564-1.057-1.74-1.492-2.612-1.61-3.22-2.355-6.925-4.104-10.07-0.4356-0.784-1.057-1.455-1.492-2.239-0.191-0.3438-0.1371-0.8047-0.3731-1.119-0.1668-0.2225-0.592-0.1417-0.7462-0.3731-0.138-0.207 0-0.4975 0-0.7462-0.1244-0.2488-0.2062-0.5238-0.3731-0.7462-0.2111-0.2814-0.5889-0.4316-0.7462-0.7462-0.1112-0.2225 0.0924-0.5153 0-0.7462-0.2693-0.6733-0.7171-1.262-1.119-1.866-0.6853-1.028-1.557-1.962-2.239-2.985-0.3085-0.4628-0.3529-1.099-0.7462-1.492-0.0879-0.0879-0.2852 0.0879-0.3731 0-0.0879-0.0879 0.0556-0.2619 0-0.3731-0.2239-0.4478-0.8955-0.6716-1.119-1.119-0.2217-0.4434-0.3766-1.03-0.7462-1.492-0.4972-0.6215-1.496-1.5-1.866-2.239-0.2293-0.4587-0.2487-0.995-0.3731-1.492z"
         style='fill:none;stroke:#000;stroke-width:0.2646px;'
        />
        <path
          d="m-629.4 294.8c1.281 5.405 2.111 10.91 2.612 16.42-0.3228 1.47 0.6079 2.721 0.7462 4.104 0.2585 2.585 0.358 5.297 1.119 7.835 0.88 2.933 3.267 7.435 4.85 10.07 0.4614 0.7691 1.091 1.437 1.492 2.239 0.2293 0.4587 0.1648 1.024 0.3731 1.492 2.019 4.543 0.2578 0.2001 1.866 2.612 0.8349 0.6636 0.632 1.8 1.119 2.612 0.181 0.3016 0.6156 0.4196 0.7462 0.7462 0.1386 0.3464-0.118 0.7654 0 1.119 0.1418 0.4254 0.5457 0.7182 0.7462 1.119 0.543 1.086 1.105 2.567 1.492 3.731 1.049 3.146 1.31 7.716 3.358 10.45 1.471 1.961 0.0315-0.691 1.492 1.866 0.276 0.4829 0.3902 1.065 0.7462 1.492 0.2871 0.3445 0.8023 0.4292 1.119 0.7462 1.05 1.05 1.018 1.553 1.866 2.612 0.037 0.0463 1.082 0.7 1.119 0.7462 0.453 0.5663 0.6842 1.285 1.119 1.866 0.5828 0.7771 1.179 1.552 1.866 2.239 0.1967 0.1966 0.592 0.1417 0.7462 0.3731 0.3715 0.5573 0.3747 1.308 0.7462 1.866 0.1543 0.2314 0.5496 0.1765 0.7462 0.3731 0.9677 0.9677 1.854 2.221 2.612 3.358 0.5715 0.8572 0.2131-0.16 1.119 0.7462 0.8956 0.8956 1.343 2.462 2.239 3.358 0.1967 0.1967 0.5496 0.1765 0.7462 0.3731 0.088 0.0879-0.069 0.2696 0 0.3731 0.5895 0.8843 1.204 1.73 1.866 2.612 0.6491 0.8655 1.432 1.155 1.866 2.239 0.0924 0.231-0.138 0.5393 0 0.7462 0.1543 0.2314 0.5496 0.1765 0.7462 0.3731 0.0879 0.0879-0.0556 0.2619 0 0.3731 0.2985 0.597 1.194 0.8955 1.492 1.492 0.9318 1.864 2.169 3.44 3.358 5.224 0.9259 1.389 1.264 2.975 1.866 4.477 0.1306 0.3266 0.5889 0.4316 0.7462 0.7462 0.7104 1.421 1.189 3.125 1.866 4.477 1.384 2.767 1.112 8.414 0 11.19-0.0462 0.1155-0.3041-0.1035-0.3731 0-0.4233 0.6349-0.323 1.231-0.7462 1.866-0.892 1.338-1.7 2.737-2.612 4.104-0.1951 0.2927-0.5889 0.4316-0.7462 0.7462-0.0955 0.191-0.2278 2.757 0 2.985 0.6132 0.6132 5.258-1.065 5.97-1.492 0.7596-0.4558 1.44-1.093 2.239-1.492 1.027-0.5136 1.669-0.0587 2.612-0.3731 0.5563-0.1854 1.093-0.5663 1.866-0.3731 2.428 0.6071 4.448 2.448 5.97 4.477 0.9166 0.133 0.1549 0.7921 0.3731 1.119 0.1951 0.2927 0.5889 0.4316 0.7462 0.7462 0.1112 0.2225-0.0488 0.5023 0 0.7462 0.307 1.535 1.124 3.003 1.492 4.477 0.2047 0.819 0.7986 0.851 1.119 1.492 0.2293 0.4587 0.1711 1.021 0.3731 1.492 0.6589 1.537 1.933 2.702 2.985 4.104 0.2856 0.3809 1.739 4.218 1.866 4.85 0.3315 1.658-0.5337 1.814-1.119 2.985-0.1112 0.2225 0.1112 0.5238 0 0.7462-0.1244 0.2488-0.1765 0.5496-0.3731 0.7462-0.0879 0.0879-0.3175-0.1112-0.3731 0-0.2448 0.4896-0.1257 1.369-0.7462 1.866-0.4343 0.3475-1.03 0.4377-1.492 0.7462-0.2927 0.1951-0.4648 0.5352-0.7462 0.7462-2.435 1.826-6.855 1.847-9.701 2.985-0.1633 0.0653-0.2063 0.3175-0.3731 0.3731-0.236 0.0787-0.5102-0.0787-0.7462 0-1.165 0.3882 0.1244 0.2488-0.3731 0.7462-0.1401 0.1401-1.708 0.9613-1.866 1.119-0.1813 0.1814-1.35 2.7-1.492 2.985-0.4686 0.9371-1.169 2.089-0.7462 3.358 1.169 3.507 3.196 4.218 6.716 5.224 1.022 0.2919 1.943 0.9109 2.985 1.119 3.317 0.6633 0.597-0.398 2.985 0 1.632 0.272 0.5756 0.581 2.239 0.3731 1.362-0.1702 2.77-0.5239 4.104-0.7462 1.612-0.2687 3.124-1.427 4.477-2.239 1.219-0.7316 2.441-0.9763 3.731-1.492 0.1633-0.0653 0.2487-0.2488 0.3731-0.3731 0.3731-0.1244 0.7337-0.296 1.119-0.3731 0.8212-0.1642 1.431-0.5444 2.239-0.7462 0.4826-0.1207 1.02 0.1573 1.492 0 0.1669-0.0556 0.2063-0.3175 0.3731-0.3731 0.7591-0.253 3.188 0.5433 3.731 0 0.1759-0.1759-0.0603-0.5049 0-0.7462 0.2302-0.9207 0.948-1.382 1.119-2.239 0.1743-0.8716 0.3194-5.012 0-5.97-0.0879-0.2638-0.3186-0.4735-0.3731-0.7462-0.3235-1.617 0.0279-3.993-0.3731-5.597-0.0674-0.2698-0.2487-0.4975-0.3731-0.7462-0.1244-0.4975-0.2619-0.9919-0.3731-1.492-0.6104-2.747-0.8006-5.546-1.866-8.209-0.0653-0.1633-0.3175-0.2062-0.3731-0.3731-0.3054-0.9163 0.1089-0.9016-0.3731-1.866-0.9441-1.888-0.4246-3.294-0.7462-5.224-0.0843-0.5058-0.3006-0.9848-0.3731-1.492-0.1195-0.8367 0.166-1.782 0-2.612-0.3268-1.634-0.7956-3.232-1.119-4.85-0.1219-0.6098 0.0879-1.25 0-1.866-0.2757-1.93-0.6601-3.76-1.119-5.597-0.4596-1.838 0.2656-4.111 0-5.97-0.2361-1.653-0.796-3.234-1.119-4.85-0.2586-1.293-0.0571-2.84-0.3731-4.104-0.4756-1.903-1.333-3.734-1.866-5.597-0.1742-0.6098-0.1233-1.283-0.3731-1.866-0.1386-0.3233-0.6156-0.4196-0.7462-0.7462-0.1386-0.3464 0.1025-0.7606 0-1.119-0.2948-1.032-1.09-1.979-1.492-2.985-0.1904-0.4761-0.1438-1.034-0.3731-1.492-0.0787-0.1573-0.3305-0.2025-0.3731-0.3731-0.181-0.724 0.1463-1.507 0-2.239-0.2487-0.8706-0.4975-1.741-0.7462-2.612-0.1244 0-0.3338 0.118-0.3731 0-0.118-0.354 0.0528-0.75 0-1.119-0.0725-0.5076-0.2487-0.995-0.3731-1.492-0.2487-1.741-0.5795-3.473-0.7462-5.224-0.1768-1.857-0.066-3.754-0.3731-5.597-0.6196-3.717-0.1678 2.015-0.7462-2.612-0.108-0.8639 0.1431-1.753 0-2.612-0.0647-0.388-0.3175-0.73-0.3731-1.119-0.245-1.715 0.1045-3.552-0.3731-5.224-0.1528-0.5348-0.6113-0.9529-0.7462-1.492-0.3016-1.207 0.1373-2.495 0-3.731-0.1778-1.6-0.851-3.24-1.119-4.85-0.2007-1.204 0.2393-2.535 0-3.731-0.0545-0.2727-0.3186-0.4736-0.3731-0.7462-0.1597-0.7984 0.2569-1.841 0-2.612-0.3601-1.08-0.1865-1.865-0.3731-2.985-0.2479-1.488-0.8714-2.99-1.119-4.477-0.0818-0.4907 0.1206-1.01 0-1.492-0.1244-0.3731-0.2487-0.7462-0.3731-1.119 0-0.2487 0.0603-0.5049 0-0.7462-0.1349-0.5396-0.6114-0.9528-0.7462-1.492-0.143-0.5722 0.1861-1.307 0-1.866-0.2621-0.7862-0.888-1.545-1.119-2.239-0.118-0.354 0.1668-0.7856 0-1.119-0.7764-1.553 0.0257 0.3989-0.7462-0.3731-0.2206-0.2206-0.6456-1.664-0.7462-1.866-0.2857-0.5714-0.6649-0.2918-1.119-0.7462-0.0879-0.0879 0-0.2487 0-0.3731-0.2488-0.2487-0.4536-0.5511-0.7462-0.7462-0.1035-0.069-0.2852 0.088-0.3731 0-0.1759-0.1759 0.1759-0.5703 0-0.7462-0.925-0.925-0.9823-0.5305-1.866-1.119-0.552-0.368-0.9018-1.197-1.492-1.492-0.1401-0.07-2.039-1.069-2.239-1.119-1.229-0.3073-4.029 0.151-4.85-1.492-1.445-2.889 5.313-4.8 6.716-5.97 0.3445-0.2871 0.4772-0.7606 0.7462-1.119 0.408-0.544 1.115-0.5529 1.492-1.119 0.5214-0.7821 0.5722-1.742 0.7462-2.612 0.2812-1.406 0.6684-3.001 0.3731-4.477-0.6966-3.483-3.339-7.62-5.224-10.45-0.5729-0.8594-1.618-1.412-2.239-2.239-0.6629-0.8839-1.063-1.809-1.866-2.612-0.0936-0.0936-0.979-1.352-1.119-1.492-0.1967-0.1967-0.5496-0.1765-0.7462-0.3731-0.1967-0.1967-0.1506-0.5794-0.3731-0.7462-2.548-0.8493-0.12 0.2532-1.492-1.119-0.3518-0.3518-0.995 0-1.492 0-0.3933 0-0.7261-0.3731-1.119-0.3731-3.423 0-0.7351 0.277-2.612 0.7462-2.04 0.5101-3.904 1.071-5.97 1.866-0.5191 0.1996-0.9597 0.5864-1.492 0.7462-0.7246 0.2174-1.505 0.1896-2.239 0.3731-2.138 0.5345-4.205 1.331-6.343 1.866-1.844 0.4609-3.753 0.6584-5.597 1.119-1.343 0.3358-2.455 1.014-3.731 1.492-1.216 0.4559-2.487 0.7462-3.731 1.119-0.8672 0.2602-1.715 0.6182-2.612 0.7462-1.466 0.2094-1.566-0.3366-2.985 0.3731-0.3146 0.1573-0.4196 0.6156-0.7462 0.7462-0.3464 0.1386-0.7513-0.0614-1.119 0-1.108 0.1846-2.321 0.4006-3.358 0.7462-0.4231 0.141-1.806 0.3136-1.866 0.3731-0.0879 0.0879 0.0879 0.2852 0 0.3731-0.772 0.772 0.0302-1.18-0.7462 0.3731-0.0556 0.1112 0.0879 0.2852 0 0.3731-0.1759 0.1759-0.5237-0.1112-0.7462 0-0.3146 0.1573-0.4316 0.5889-0.7462 0.7462-0.3191 0.1596-0.8003 0.2136-1.119 0.3731-0.5071 0.2536-0.9853 0.8658-1.492 1.119-0.1113 0.0556-0.2852-0.088-0.3731 0-0.0879 0.0879 0.0879 0.2852 0 0.3731-0.0879 0.0879-0.2852-0.088-0.3731 0-0.4736 0.4736 0.4467 1.267 0.7462 1.866z"
          style='fill:none;stroke:#000;stroke-width:0.2646px;'
        />

        <path
          d="m-567.9 258.2c-0.2969 2.775 0.4975 5.473 0.7462 8.209 0.1009 1.11-0.1009 2.248 0 3.358 0.2909 3.2 1.353 6.602 2.239 9.701 0.2241 0.7843 0.9216 1.448 1.119 2.239 0.0905 0.362-0.1669 0.7856 0 1.119 0.4771 0.9542 2.579 5.45 3.358 5.97 0.0475 0.0317 1.328 0.3731 1.492 0.3731 1.72 0 3.133-8e-3 4.851 0.3731 1.042 0.2315 1.968 0.8289 2.985 1.119 0.9086 0.2596 2.064 0.143 2.985 0.3731 0.7858 0.1965 1.469 0.8628 2.239 1.119 0.118 0.0393 0.2852-0.0879 0.3731 0 0.1759 0.1759 0 0.4975 0 0.7462 0 0.3731 0.1669 0.7856 0 1.119-0.1683 0.3366-3.499 1.835-4.104 2.239-1.246 0.8303-2.485 1.781-3.731 2.612-0.6737 0.4491-1.604 0.4289-2.239 0.7462-1.768 0.8839 2.521-0.2184-1.492 1.119-0.354 0.118-0.7513-0.0613-1.119 0-0.6831 0.1138-2.476 0.9837-2.985 1.492-0.0879 0.0879 0.088 0.2852 0 0.3731-0.772 0.772 0.0302-1.18-0.7462 0.3731-0.4108 0.8215 0.2182 7.962 0.3731 8.582 1.08 4.318 3.43 8.123 4.477 12.31 0.2701 1.08 0.1894 2.256 0.3731 3.358 0.1228 0.7372 0.5992 1.504 0.7462 2.239 0.0975 0.4878-0.1206 1.01 0 1.492 0.5076 2.031 0.4024 0.2344 0.7462 2.985 0.0463 0.3702-0.118 0.7654 0 1.119 0.1418 0.4254 0.6044 0.694 0.7462 1.119 0.995 2.985-0.3317 0.1658 0 1.492 0.1412 0.5646 0.6051 1.301 0.7462 1.866 0.143 0.5722-0.1861 1.307 0 1.866 0.2105 0.6316 0.5851 1.221 0.7462 1.866 0.208 0.832 0 2.158 0 2.985 0 1.906-0.2669 4.101 0 5.97 0.0249 0.1741 0.3305 0.2025 0.3731 0.3731 0.3215 1.286-0.2602 2.803 0 4.104 0.1751 0.8754 0.9254 1.739 1.119 2.612 0.1908 0.8585 0.2006 1.749 0.3731 2.612 0.494 2.47 1.614 4.951 1.866 7.462 0.0742 0.7425-0.0743 1.496 0 2.239 0.1637 1.637 0.9541 3.198 1.119 4.85 0.2619 2.618 0.4558 5.222 0.7462 7.835 0.1401 1.261 0.6062 2.471 0.7462 3.731 0.1099 0.9889-0.099 1.995 0 2.985 0.1775 1.775 0.4942 2.219 0.7462 3.731 0.2821 1.693-0.2129 3.52 0 5.224 0.3975 3.18 0.3731 0.9975 0.3731 2.239 0 1.106-0.188 2.603 0 3.731 0.1881 1.129 0.1886 2.251 0.3731 3.358 0.6196 3.717 0.1679-2.015 0.7462 2.612 0.2946 2.357 0.1112 4.732 0.3731 7.089 0.1536 1.382 0.6203 2.719 0.7462 4.104 0.2131 2.344 0.0809 4.752 0.3731 7.089 0.3272 2.618 1.166 5.227 1.492 7.835 0.1472 1.178-0.2349 2.557 0 3.731 0.3605 1.803 1.191 3.413 1.492 5.224 0.1353 0.8119-0.2584 1.837 0 2.612 0.1489 0.4468 0.58 0.9938 0.7462 1.492 0.4452 1.336 1.172 3.037 2.239 4.104 0.0879 0.088 0.2852-0.0879 0.3731 0 0.046 0.046 0.7716 1.518 1.119 1.866 0.3258 0.3258 2.156 0.2212 2.612 0.3731 0.1669 0.0556 0.2063 0.3175 0.3731 0.3731 0.4959 0.1653 1.392-0.2369 1.866 0 1.079 0.5398 3.06 0.6717 4.104-0.3731 0.0879-0.0879-0.0879-0.2852 0-0.3731 0.9844-0.9844 2.515-1.488 3.358-2.612 0.4794-0.6392 0.7768-1.388 1.492-1.866 0.4628-0.3085 1.099-0.3529 1.492-0.7462 0.1966-0.1966 0.2062-0.5237 0.3731-0.7462 0.7054-0.9406 2.006-1.603 2.612-2.612 0.2023-0.3372 0.095-0.8412 0.3731-1.119 0.1759-0.1759 0.5238 0.1113 0.7462 0 0.1112-0.0556-0.0879-0.2852 0-0.3731 0.1942-0.1942 2.029-1.726 2.239-1.866 1.58-1.054 3.198-2.257 4.85-3.358 0.861-0.574 1.378-1.665 2.239-2.239 0.3562-0.2375 1.061-0.4584 1.492-0.7462 0.8572-0.5714-0.16-0.2131 0.7462-1.119 0.0846-0.0846 1.599-0.919 1.866-1.119 0.8478-0.6358 1.82-1.338 2.612-1.866 0.439-0.2927 0.6803-0.8266 1.119-1.119 0.6493-0.4329 1.693-0.7558 2.239-1.119 0.2927-0.1951 0.4316-0.5889 0.7462-0.7462 0.2225-0.1112 0.5237 0.1112 0.7462 0 0.472-0.236 0.6188-0.9525 1.119-1.119 0.236-0.0787 0.5238 0.1112 0.7462 0 0.5966-0.2983 0.9331-1.12 1.492-1.492-0.0425-0.7068 0.8706-0.2487 1.119-0.3731 0.4034-0.2017 1.923-1.55 2.239-1.866 0.6035-0.6035 0.7324-1.359 1.492-1.866 0.1035-0.069 0.2487 0 0.3731 0 0.3731-0.3731 0.8028-0.6972 1.119-1.119 0.0746-0.0995 0-0.2487 0-0.3731 0.2487-0.2487 0.4536-0.5511 0.7462-0.7462 0.1035-0.069 0.2852 0.0879 0.3731 0 0.1967-0.1967 0.1765-0.5496 0.3731-0.7462 0.088-0.0879 0.3175 0.1112 0.3731 0 0.1113-0.2225-0.0787-0.5102 0-0.7462 0.0556-0.1669 0.3175-0.2063 0.3731-0.3731 0.0787-0.236-0.0603-0.5049 0-0.7462 0.1412-0.5646 0.6051-1.301 0.7462-1.866 0.4008-1.603-0.447-3.728-0.7462-5.224-0.3109-1.555 0.2073-0.6219 0-1.866-0.2059-1.235-0.9191-2.156-1.119-3.358-0.3395-2.037 0.0289-4.333-0.3731-6.343-0.0545-0.2727-0.3186-0.4736-0.3731-0.7462-0.4667-2.334-0.6562-4.773-1.119-7.089-0.469-2.345-0.3103 0.2198-1.119-2.612-0.2914-1.02-0.112-1.94-0.3731-2.985-0.2313-0.9253-0.9237-1.633-1.119-2.612-0.2073-1.036 0.3109-0.6218 0-1.866-0.1159-0.4636-0.9571-1.801-1.119-2.612-0.1174-0.5869 0.1451-1.285 0-1.866-0.4803-1.921-0.3823 0.6819-0.7462-1.866-0.1785-1.249-0.195-2.485-0.3731-3.731-0.2498-1.749-0.8682-3.466-1.119-5.224-0.2509-1.756-0.0454-3.421-0.3731-5.224-0.3172-1.744-1.191-3.717-1.492-5.224-0.0732-0.3659 0-0.7462 0-1.119-0.1244-0.6219-0.2062-1.254-0.3731-1.866-0.3245-1.19-0.8728-2.498-1.119-3.731-0.5156-2.578-0.6915-5.269-1.119-7.835-0.1022-0.6134 0.1508-1.262 0-1.866-0.7866-3.146-1.334-6.511-1.866-9.701-0.1293-0.7759-0.592-1.467-0.7462-2.239-0.0488-0.2439 0-0.4975 0-0.7462 0-0.6218 0.1219-1.256 0-1.866-0.1314-0.6568-0.5622-1.222-0.7462-1.866-0.2635-0.9222 0.2331-2.052 0-2.985-0.0675-0.2698-0.3057-0.4764-0.3731-0.7462-0.2926-1.171 0.2926-2.561 0-3.731-0.1877-0.7506-0.5951-1.483-0.7462-2.239-0.2434-1.217-0.122-2.475-0.3731-3.731-0.1667-0.8333 0.2057-1.789 0-2.612-0.382-1.528-0.8106-2.934-1.119-4.477-0.2175-1.087-0.1019-2.273-0.3731-3.358-0.1877-0.7506-0.5951-1.483-0.7462-2.239-0.2057-1.029 0.3302-2.368 0-3.358-0.2866-0.8597-1.074-4.432-1.492-4.85-0.0879-0.0879-0.2852 0.0879-0.3731 0-0.0879-0.0879 0.0879-0.2852 0-0.3731-1.183-1.183-3.76-1.249-5.224-1.492-1.149-0.1914-2.281-0.7602-3.358-1.119-0.7836-0.2612-1.828 0.2612-2.612 0-0.1669-0.0556-0.2063-0.3175-0.3731-0.3731-0.236-0.0787-0.5049 0.0603-0.7462 0-0.5396-0.1349-0.9648-0.5704-1.492-0.7462-0.7261-0.242-1.588-0.0954-2.239-0.7462-0.1759-0.1759 0.5153 0.0924 0.7462 0 0.5164-0.2066 1.048-0.4125 1.492-0.7462 0.0995-0.0746-0.1207-0.343 0-0.3731 0.4826-0.1207 1.031 0.1848 1.492 0 0.2582-0.1033 0.1764-0.5496 0.3731-0.7462 0.3171-0.3171 0.7182-0.5457 1.119-0.7462 0.3731-0.1244 0.7462-0.2488 1.119-0.3731 0.1244 0 0.2551 0.0393 0.3731 0 2.827-0.9425-0.1348 0.1347 0.7462-0.7462 0.1759-0.1759 0.5392 0.138 0.7462 0 0.2927-0.1951 0.4535-0.5511 0.7462-0.7462 0.1035-0.069 0.2852 0.0879 0.3731 0 0.088-0.0879-0.0879-0.2852 0-0.3731 0.1759-0.1759 0.5703 0.1759 0.7462 0 0.088-0.0879-0.0879-0.2852 0-0.3731 0.133-0.9166 0.7921-0.155 1.119-0.3731 0.2927-0.1951 0.4648-0.5352 0.7462-0.7462 0.3146-0.236 0.8412-0.095 1.119-0.3731 0.2286-0.2286 0.3176-0.9765 0.7462-1.119 0.354-0.118 0.7856 0.1668 1.119 0 0.3146-0.1573 0.4316-0.5889 0.7462-0.7462 0.1112-0.0556 0.3175 0.1112 0.3731 0 0.1112-0.2225-0.1113-0.5238 0-0.7462 0.0556-0.1112 0.3338 0.118 0.3731 0 0.4706-1.412-0.4458-6.706-0.7462-8.209-0.675-3.375-0.0353 1.013-0.7462-1.119-0.1573-0.4719 0.1206-1.01 0-1.492-0.2208-0.8831-0.8302-1.744-1.119-2.612-0.1573-0.472 0.0976-1.005 0-1.492-0.675-3.375-0.0353 1.013-0.7462-1.119-0.0787-0.236 0.0787-0.5102 0-0.7462-0.0556-0.1669-0.3175-0.2063-0.3731-0.3731-0.0787-0.236 0.0488-0.5023 0-0.7462 0.0856-0.7493-0.5838-1.216-0.7462-1.866-0.0905-0.362 0.118-0.7654 0-1.119 0.2249-0.6753-0.6044-0.6939-0.7462-1.119-0.0787-0.236 0.1112-0.5238 0-0.7462-0.0556-0.1112-0.3338 0.118-0.3731 0-0.118-0.354 0.0732-0.7535 0-1.119-0.2111-1.056-0.6859-1.745-1.119-2.612-0.1112-0.2225 0.1759-0.5703 0-0.7462-0.1759-0.1759-0.5102 0.0787-0.7462 0-3.11-1.037-5.635 1.062-8.582 1.866-0.7298 0.199-1.497 0.2248-2.239 0.3731-3.566 0.7132-7.209 1.35-10.82 1.866-1.135 0.1622-2.22 0.604-3.358 0.7462-4.987 0.6234 3.623-1.172-4.104 0.3731-0.7713 0.1543-1.46 0.635-2.239 0.7462-1.612 0.2302-3.24 0.0509-4.85 0.3731-1.416 0.2833-2.738 1.151-4.104 1.492-0.8194 0.2048-1.792-0.2048-2.612 0-1.015 0.2536-1.885 0.5629-2.985 0.7462-1.484 0.2474-3.422-0.4761-4.85 0-0.4787 0.1596-1.014 0.5867-1.492 0.7462-0.8224 0.2741-2.386-0.4276-2.985-0.3731-0.7834 0.0712-1.492 0.4975-2.239 0.7462"
          style='fill:none;stroke:#000;stroke-width:0.2646px;'
        />
      </g>
    </svg>