<?xml version="1.0" encoding="UTF-8"?><svg id="Layer_2" xmlns="http://www.w3.org/2000/svg" viewBox="0 0 52.26 52.26"><defs><style>.cls-1{fill:#fff;stroke-width:0px;}</style></defs><g id="Layer_1-2"><path class="cls-1" d="m31.62,26.13c0,3.04-2.46,5.49-5.49,5.49s-5.49-2.45-5.49-5.49,2.46-5.47,5.49-5.47,5.49,2.45,5.49,5.47Z"/><path class="cls-1" d="m39.53,19.49c-.07-1.61-.34-2.47-.57-3.05-.3-.77-.66-1.32-1.23-1.89-.58-.58-1.12-.93-1.89-1.23-.58-.22-1.45-.5-3.06-.57-1.73-.08-2.25-.09-6.65-.09s-4.91.01-6.65.09c-1.61.07-2.48.34-3.06.57-.76.3-1.31.65-1.89,1.23-.57.57-.92,1.12-1.23,1.89-.22.58-.48,1.44-.57,3.05-.07,1.74-.09,2.26-.09,6.64s.02,4.92.09,6.66c.08,1.6.34,2.47.57,3.05.31.77.66,1.31,1.23,1.89.58.58,1.14.93,1.89,1.23.58.22,1.45.5,3.06.57,1.74.08,2.26.09,6.65.09s4.92-.01,6.65-.09c1.61-.07,2.48-.34,3.06-.57.77-.3,1.31-.65,1.89-1.23.57-.58.93-1.12,1.23-1.89.22-.58.5-1.45.57-3.05.07-1.74.09-2.26.09-6.66s-.02-4.91-.09-6.64Zm-13.4,15.1c-4.67,0-8.44-3.78-8.44-8.45s3.77-8.44,8.44-8.44,8.45,3.78,8.45,8.44-3.78,8.45-8.45,8.45Z"/><path class="cls-1" d="m26.13,0C11.71,0,0,11.71,0,26.13s11.71,26.13,26.13,26.13,26.13-11.69,26.13-26.13S40.57,0,26.13,0Zm16.35,32.92c-.08,1.75-.35,2.94-.76,4-.43,1.08-.99,2-1.9,2.91-.91.92-1.83,1.48-2.91,1.9-1.05.4-2.25.69-4,.76-1.76.08-2.32.11-6.79.11s-5.03-.02-6.79-.11c-1.75-.07-2.94-.35-3.98-.76-1.09-.43-2-.98-2.92-1.9-.91-.91-1.48-1.83-1.89-2.91-.41-1.05-.69-2.25-.77-4-.08-1.75-.09-2.32-.09-6.79s.01-5.03.09-6.78c.08-1.75.35-2.96.77-4,.41-1.09.98-2,1.89-2.92.92-.91,1.83-1.47,2.92-1.89,1.04-.4,2.23-.69,3.98-.77,1.76-.07,2.32-.09,6.79-.09s5.03.02,6.79.09c1.75.08,2.94.37,4,.77,1.08.43,2,.98,2.91,1.89.91.92,1.48,1.83,1.9,2.92.4,1.04.67,2.25.76,4s.11,2.31.11,6.78-.02,5.04-.11,6.79Z"/><circle class="cls-1" cx="34.92" cy="17.35" r="1.97"/></g></svg>