<?xml version="1.0" encoding="UTF-8"?><svg id="Layer_2" xmlns="http://www.w3.org/2000/svg" xmlns:xlink="http://www.w3.org/1999/xlink" viewBox="0 0 52.26 52.26"><defs><style>.cls-1{mask:url(#mask);}.cls-2{fill-rule:evenodd;}.cls-2,.cls-3{fill:#fff;stroke-width:0px;}.cls-4{filter:url(#luminosity-invert-noclip);}</style><filter id="luminosity-invert-noclip" x="0" y="0" width="52.26" height="52.26" color-interpolation-filters="sRGB" filterUnits="userSpaceOnUse"><feColorMatrix result="cm" values="-1 0 0 0 1 0 -1 0 0 1 0 0 -1 0 1 0 0 0 1 0"/><feFlood flood-color="#fff" result="bg"/><feBlend in="cm" in2="bg"/></filter><mask id="mask" x="0" y="0" width="52.26" height="52.26" maskUnits="userSpaceOnUse"><g class="cls-4"><g id="WA_Logo"><path class="cls-2" d="m38.7,13.88c-3.13-3.13-7.29-4.86-11.73-4.86-9.14,0-16.57,7.43-16.58,16.57,0,2.92.76,5.77,2.21,8.28l-2.35,8.59,8.79-2.3c2.42,1.32,5.15,2.02,7.92,2.02h0c9.14,0,16.57-7.43,16.58-16.57,0-4.43-1.72-8.59-4.85-11.72Zm-11.73,25.5h0c-2.47,0-4.9-.67-7.01-1.92l-.5-.3-5.21,1.37,1.39-5.08-.33-.52c-1.38-2.19-2.11-4.73-2.11-7.33,0-7.59,6.18-13.77,13.78-13.77,3.68,0,7.14,1.44,9.74,4.04,2.6,2.6,4.03,6.06,4.03,9.74,0,7.6-6.18,13.77-13.78,13.77Zm7.56-10.32c-.41-.21-2.45-1.21-2.83-1.35-.38-.14-.66-.21-.93.21-.28.41-1.07,1.35-1.31,1.62-.24.28-.48.31-.9.1-.41-.21-1.75-.64-3.33-2.06-1.23-1.1-2.06-2.45-2.3-2.87s-.03-.64.18-.85c.19-.19.41-.48.62-.73.21-.24.28-.41.41-.69s.07-.52-.03-.73-.93-2.25-1.28-3.07c-.34-.81-.68-.7-.93-.71-.24-.01-.52-.01-.79-.01s-.72.1-1.1.52c-.38.41-1.45,1.42-1.45,3.45s1.48,4.01,1.69,4.28,2.92,4.46,7.08,6.25c.99.43,1.76.68,2.36.87.99.31,1.9.27,2.61.16.8-.12,2.45-1,2.8-1.97.35-.97.35-1.8.24-1.97s-.38-.28-.79-.48Z"/></g></g></mask></defs><g id="Layer_1-2"><g class="cls-1"><circle class="cls-3" cx="26.13" cy="26.13" r="26.13"/></g></g></svg>